<?xml version="1.0" encoding="UTF-8"?>
<svg xmlns="http://www.w3.org/2000/svg" xmlns:xlink="http://www.w3.org/1999/xlink" width="3000" height="2200" viewBox="0 0 3000 2200">
<defs>
<clipPath id="clip-0">
<path clip-rule="nonzero" d="M 544 837 L 2555 837 L 2555 1085 L 544 1085 Z M 544 837 "/>
</clipPath>
<clipPath id="clip-1">
<path clip-rule="nonzero" d="M 2554.121094 1084.578125 L 2554.078125 1084.511719 L 2554.070312 1084.488281 L 2554.121094 1084.578125 M 544.742188 983.46875 C 544.757812 983.460938 544.769531 983.449219 544.78125 983.441406 C 544.832031 983.398438 544.882812 983.359375 544.933594 983.320312 C 544.871094 983.371094 544.804688 983.421875 544.742188 983.46875 M 1142.78125 923.019531 L 1142.78125 923.019531 M 1142.78125 923.019531 L 1142.78125 923.019531 M 1142.78125 923.019531 L 1142.78125 923.019531 M 1142.789062 923.019531 L 1142.789062 923.019531 M 1142.789062 923.011719 L 1142.789062 923.011719 M 1143.308594 922.609375 C 1144.179688 921.929688 1146.140625 920.410156 1149.019531 918.160156 C 1164.539062 906.109375 1206.980469 873.199219 1253.621094 837.628906 C 1198.320312 879.808594 1148.910156 918.25 1143.308594 922.609375 "/>
</clipPath>
<clipPath id="clip-2">
<path clip-rule="nonzero" d="M 2554.121094 1084.578125 L 2554.078125 1084.511719 L 2554.070312 1084.488281 L 2554.121094 1084.578125 M 544.742188 983.46875 C 544.757812 983.460938 544.769531 983.449219 544.78125 983.441406 C 544.832031 983.398438 544.882812 983.359375 544.933594 983.320312 C 544.871094 983.371094 544.804688 983.421875 544.742188 983.46875 M 1142.78125 923.019531 L 1142.78125 923.019531 M 1142.78125 923.019531 L 1142.78125 923.019531 M 1142.78125 923.019531 L 1142.78125 923.019531 M 1142.789062 923.019531 L 1142.789062 923.019531 M 1142.789062 923.011719 L 1142.789062 923.011719 M 1143.308594 922.609375 C 1144.179688 921.929688 1146.140625 920.410156 1149.019531 918.160156 C 1164.539062 906.109375 1206.980469 873.199219 1253.621094 837.628906 C 1198.320312 879.808594 1148.910156 918.25 1143.308594 922.609375 "/>
</clipPath>
<linearGradient id="linear-pattern-0" gradientUnits="userSpaceOnUse" x1="-0.0584596" y1="0" x2="0.328581" y2="0" gradientTransform="matrix(0, -638.047, 638.047, 0, 1534, 1047.28)">
<stop offset="0" stop-color="rgb(100%, 100%, 100%)" stop-opacity="1"/>
<stop offset="0.125" stop-color="rgb(100%, 100%, 100%)" stop-opacity="1"/>
<stop offset="0.1875" stop-color="rgb(100%, 100%, 100%)" stop-opacity="1"/>
<stop offset="0.203125" stop-color="rgb(100%, 99.993896%, 99.894714%)" stop-opacity="1"/>
<stop offset="0.21875" stop-color="rgb(100%, 99.980164%, 99.639893%)" stop-opacity="1"/>
<stop offset="0.234375" stop-color="rgb(100%, 99.964905%, 99.34082%)" stop-opacity="1"/>
<stop offset="0.25" stop-color="rgb(100%, 99.949646%, 99.041748%)" stop-opacity="1"/>
<stop offset="0.265625" stop-color="rgb(100%, 99.934387%, 98.742676%)" stop-opacity="1"/>
<stop offset="0.28125" stop-color="rgb(99.996948%, 99.887085%, 98.429871%)" stop-opacity="1"/>
<stop offset="0.296875" stop-color="rgb(99.989319%, 99.763489%, 98.083496%)" stop-opacity="1"/>
<stop offset="0.3125" stop-color="rgb(99.977112%, 99.598694%, 97.718811%)" stop-opacity="1"/>
<stop offset="0.328125" stop-color="rgb(99.971008%, 99.497986%, 97.381592%)" stop-opacity="1"/>
<stop offset="0.34375" stop-color="rgb(99.969482%, 99.468994%, 97.077942%)" stop-opacity="1"/>
<stop offset="0.359375" stop-color="rgb(99.969482%, 99.453735%, 96.77887%)" stop-opacity="1"/>
<stop offset="0.375" stop-color="rgb(99.969482%, 99.438477%, 96.482849%)" stop-opacity="1"/>
<stop offset="0.390625" stop-color="rgb(99.969482%, 99.423218%, 96.183777%)" stop-opacity="1"/>
<stop offset="0.40625" stop-color="rgb(99.966431%, 99.365234%, 95.86792%)" stop-opacity="1"/>
<stop offset="0.421875" stop-color="rgb(99.958801%, 99.232483%, 95.518494%)" stop-opacity="1"/>
<stop offset="0.4375" stop-color="rgb(99.946594%, 99.069214%, 95.15686%)" stop-opacity="1"/>
<stop offset="0.453125" stop-color="rgb(99.940491%, 98.977661%, 94.825745%)" stop-opacity="1"/>
<stop offset="0.46875" stop-color="rgb(99.940491%, 98.959351%, 94.528198%)" stop-opacity="1"/>
<stop offset="0.484375" stop-color="rgb(99.938965%, 98.919678%, 94.197083%)" stop-opacity="1"/>
<stop offset="0.492188" stop-color="rgb(99.934387%, 98.84491%, 93.885803%)" stop-opacity="1"/>
<stop offset="0.5" stop-color="rgb(99.92981%, 98.75946%, 93.630981%)" stop-opacity="1"/>
<stop offset="0.507812" stop-color="rgb(99.923706%, 98.674011%, 93.377686%)" stop-opacity="1"/>
<stop offset="0.515625" stop-color="rgb(99.917603%, 98.588562%, 93.122864%)" stop-opacity="1"/>
<stop offset="0.53125" stop-color="rgb(99.913025%, 98.51532%, 92.817688%)" stop-opacity="1"/>
<stop offset="0.546875" stop-color="rgb(99.911499%, 98.477173%, 92.489624%)" stop-opacity="1"/>
<stop offset="0.5625" stop-color="rgb(99.911499%, 98.46344%, 92.193604%)" stop-opacity="1"/>
<stop offset="0.578125" stop-color="rgb(99.911499%, 98.448181%, 91.897583%)" stop-opacity="1"/>
<stop offset="0.59375" stop-color="rgb(99.911499%, 98.432922%, 91.600037%)" stop-opacity="1"/>
<stop offset="0.609375" stop-color="rgb(99.909973%, 98.384094%, 91.256714%)" stop-opacity="1"/>
<stop offset="0.617187" stop-color="rgb(99.90387%, 98.298645%, 90.933228%)" stop-opacity="1"/>
<stop offset="0.625" stop-color="rgb(99.899292%, 98.214722%, 90.681458%)" stop-opacity="1"/>
<stop offset="0.632813" stop-color="rgb(99.893188%, 98.129272%, 90.428162%)" stop-opacity="1"/>
<stop offset="0.640625" stop-color="rgb(99.887085%, 98.045349%, 90.176392%)" stop-opacity="1"/>
<stop offset="0.65625" stop-color="rgb(99.822998%, 97.962952%, 89.884949%)" stop-opacity="1"/>
<stop offset="0.671875" stop-color="rgb(99.685669%, 97.892761%, 89.567566%)" stop-opacity="1"/>
<stop offset="0.6875" stop-color="rgb(99.551392%, 97.836304%, 89.268494%)" stop-opacity="1"/>
<stop offset="0.703125" stop-color="rgb(99.491882%, 97.80426%, 88.970947%)" stop-opacity="1"/>
<stop offset="0.71875" stop-color="rgb(99.491882%, 97.789001%, 88.676453%)" stop-opacity="1"/>
<stop offset="0.734375" stop-color="rgb(99.491882%, 97.773743%, 88.337708%)" stop-opacity="1"/>
<stop offset="0.742188" stop-color="rgb(99.491882%, 97.758484%, 88.035583%)" stop-opacity="1"/>
<stop offset="0.75" stop-color="rgb(99.491882%, 97.747803%, 87.814331%)" stop-opacity="1"/>
<stop offset="0.757812" stop-color="rgb(99.491882%, 97.737122%, 87.591553%)" stop-opacity="1"/>
<stop offset="0.765625" stop-color="rgb(99.491882%, 97.724915%, 87.3703%)" stop-opacity="1"/>
<stop offset="0.78125" stop-color="rgb(99.491882%, 97.712708%, 87.109375%)" stop-opacity="1"/>
<stop offset="0.796875" stop-color="rgb(99.491882%, 97.698975%, 86.810303%)" stop-opacity="1"/>
<stop offset="0.8125" stop-color="rgb(99.491882%, 97.68219%, 86.489868%)" stop-opacity="1"/>
<stop offset="0.820312" stop-color="rgb(99.491882%, 97.668457%, 86.206055%)" stop-opacity="1"/>
<stop offset="0.828125" stop-color="rgb(99.491882%, 97.657776%, 85.984802%)" stop-opacity="1"/>
<stop offset="0.835938" stop-color="rgb(99.493408%, 97.647095%, 85.762024%)" stop-opacity="1"/>
<stop offset="0.84375" stop-color="rgb(99.493408%, 97.636414%, 85.542297%)" stop-opacity="1"/>
<stop offset="0.851562" stop-color="rgb(99.491882%, 97.610474%, 85.314941%)" stop-opacity="1"/>
<stop offset="0.859375" stop-color="rgb(99.487305%, 97.549438%, 85.073853%)" stop-opacity="1"/>
<stop offset="0.867187" stop-color="rgb(99.482727%, 97.465515%, 84.825134%)" stop-opacity="1"/>
<stop offset="0.875" stop-color="rgb(99.476624%, 97.381592%, 84.576416%)" stop-opacity="1"/>
<stop offset="0.882812" stop-color="rgb(99.472046%, 97.297668%, 84.327698%)" stop-opacity="1"/>
<stop offset="0.890625" stop-color="rgb(99.465942%, 97.221375%, 84.086609%)" stop-opacity="1"/>
<stop offset="0.90625" stop-color="rgb(99.464417%, 97.177124%, 83.824158%)" stop-opacity="1"/>
<stop offset="0.921875" stop-color="rgb(99.464417%, 97.163391%, 83.528137%)" stop-opacity="1"/>
<stop offset="0.9375" stop-color="rgb(99.499512%, 97.158813%, 83.200073%)" stop-opacity="1"/>
<stop offset="0.945312" stop-color="rgb(99.572754%, 97.166443%, 82.90863%)" stop-opacity="1"/>
<stop offset="0.953125" stop-color="rgb(99.645996%, 97.17865%, 82.687378%)" stop-opacity="1"/>
<stop offset="0.960938" stop-color="rgb(99.720764%, 97.190857%, 82.4646%)" stop-opacity="1"/>
<stop offset="0.96875" stop-color="rgb(99.795532%, 97.203064%, 82.244873%)" stop-opacity="1"/>
<stop offset="0.984375" stop-color="rgb(99.84436%, 97.206116%, 81.973267%)" stop-opacity="1"/>
<stop offset="1" stop-color="rgb(99.855042%, 97.193909%, 81.665039%)" stop-opacity="1"/>
</linearGradient>
<clipPath id="clip-3">
<path clip-rule="nonzero" d="M 513 714 L 2555 714 L 2555 1101 L 513 1101 Z M 513 714 "/>
</clipPath>
<clipPath id="clip-4">
<path clip-rule="nonzero" d="M 2359.75 1100.839844 C 2336.570312 1100.851562 2326.160156 1086.148438 2326.160156 1086.148438 C 2326.160156 1086.148438 2260.160156 1006.398438 2141.230469 1006.398438 C 2109.449219 1006.398438 2073.890625 1012.089844 2034.800781 1026.519531 C 2034.800781 1026.519531 1964.808594 1078.929688 1932.429688 1078.929688 C 1931.648438 1078.929688 1930.890625 1078.898438 1930.148438 1078.839844 C 1898.921875 1076.179688 1851.738281 1072.199219 1851.738281 1072.199219 C 1851.738281 1072.199219 1836.238281 1032.449219 1704.46875 1032.449219 C 1685.519531 1032.449219 1664.179688 1033.269531 1640.121094 1035.148438 C 1576.328125 1040.128906 1490.609375 1041.800781 1404.679688 1041.800781 C 1232.808594 1041.800781 1060.058594 1035.148438 1060.058594 1035.148438 C 1060.058594 1035.148438 1018.199219 1053.089844 998.757812 1074.019531 C 996.105469 1076.878906 993.90625 1078.128906 991.792969 1078.128906 C 978.457031 1078.128906 968.648438 1028.179688 869.6875 1018.710938 C 838.878906 1015.761719 812.171875 1014.328125 788.796875 1014.328125 C 725.214844 1014.328125 686.285156 1024.941406 656.398438 1044.621094 C 639.488281 1055.75 625.308594 1060.410156 615.058594 1060.410156 C 600.542969 1060.410156 593.921875 1051.078125 598.597656 1037.640625 C 602.183594 1027.328125 585.394531 1024.488281 565.839844 1024.488281 C 541.925781 1024.488281 513.875 1028.730469 513.875 1028.730469 C 521.527344 1011.441406 530.910156 995.609375 542.0625 985.71875 L 542.199219 985.589844 C 542.921875 984.949219 543.65625 984.351562 544.398438 983.761719 C 544.515625 983.671875 544.628906 983.570312 544.742188 983.46875 C 544.804688 983.421875 544.871094 983.371094 544.933594 983.320312 C 545.777344 982.679688 546.625 982.058594 547.480469 981.480469 L 550.085938 979.839844 C 550.085938 979.839844 668.363281 945.449219 983.804688 943.949219 C 983.804688 943.949219 1126.828125 932.988281 1142.78125 923.019531 C 1142.78125 923.019531 1142.78125 923.019531 1142.789062 923.019531 C 1142.789062 923.019531 1142.789062 923.019531 1142.789062 923.011719 C 1142.839844 922.980469 1143.011719 922.839844 1143.308594 922.609375 C 1148.910156 918.25 1198.320312 879.808594 1253.621094 837.628906 C 1312.261719 792.890625 1377.539062 743.929688 1404.238281 726.921875 C 1406.128906 725.71875 1407.808594 724.691406 1409.289062 723.808594 C 1412.519531 721.921875 1414.769531 720.839844 1415.871094 720.699219 C 1415.871094 720.699219 1472.179688 714.398438 1554.871094 714.398438 C 1658.230469 714.398438 1802.800781 724.238281 1930.148438 768.53125 C 1930.148438 768.53125 2197.261719 869.210938 2272.011719 907.078125 C 2272.011719 907.078125 2530.148438 1040.628906 2554.070312 1084.488281 L 2554.078125 1084.511719 L 2554.121094 1084.578125 C 2554.121094 1084.601562 2554.078125 1084.621094 2554.011719 1084.621094 C 2553.511719 1084.621094 2551.378906 1083.941406 2547.960938 1082.839844 L 2500.640625 1069.378906 L 2500.578125 1069.371094 C 2500.558594 1069.371094 2500.460938 1069.371094 2500.269531 1069.371094 C 2497.628906 1069.371094 2477.921875 1069.210938 2449.390625 1064.199219 C 2440.53125 1064.859375 2432.449219 1066.699219 2425.828125 1070.199219 C 2380.648438 1094.109375 2387.960938 1099.441406 2362.710938 1100.769531 C 2361.699219 1100.820312 2360.710938 1100.839844 2359.75 1100.839844 "/>
</clipPath>
<clipPath id="clip-5">
<path clip-rule="nonzero" d="M 2359.75 1100.839844 C 2336.570312 1100.851562 2326.160156 1086.148438 2326.160156 1086.148438 C 2326.160156 1086.148438 2260.160156 1006.398438 2141.230469 1006.398438 C 2109.449219 1006.398438 2073.890625 1012.089844 2034.800781 1026.519531 C 2034.800781 1026.519531 1964.808594 1078.929688 1932.429688 1078.929688 C 1931.648438 1078.929688 1930.890625 1078.898438 1930.148438 1078.839844 C 1898.921875 1076.179688 1851.738281 1072.199219 1851.738281 1072.199219 C 1851.738281 1072.199219 1836.238281 1032.449219 1704.46875 1032.449219 C 1685.519531 1032.449219 1664.179688 1033.269531 1640.121094 1035.148438 C 1576.328125 1040.128906 1490.609375 1041.800781 1404.679688 1041.800781 C 1232.808594 1041.800781 1060.058594 1035.148438 1060.058594 1035.148438 C 1060.058594 1035.148438 1018.199219 1053.089844 998.757812 1074.019531 C 996.105469 1076.878906 993.90625 1078.128906 991.792969 1078.128906 C 978.457031 1078.128906 968.648438 1028.179688 869.6875 1018.710938 C 838.878906 1015.761719 812.171875 1014.328125 788.796875 1014.328125 C 725.214844 1014.328125 686.285156 1024.941406 656.398438 1044.621094 C 639.488281 1055.75 625.308594 1060.410156 615.058594 1060.410156 C 600.542969 1060.410156 593.921875 1051.078125 598.597656 1037.640625 C 602.183594 1027.328125 585.394531 1024.488281 565.839844 1024.488281 C 541.925781 1024.488281 513.875 1028.730469 513.875 1028.730469 C 521.527344 1011.441406 530.910156 995.609375 542.0625 985.71875 L 542.199219 985.589844 C 542.921875 984.949219 543.65625 984.351562 544.398438 983.761719 C 544.515625 983.671875 544.628906 983.570312 544.742188 983.46875 C 544.804688 983.421875 544.871094 983.371094 544.933594 983.320312 C 545.777344 982.679688 546.625 982.058594 547.480469 981.480469 L 550.085938 979.839844 C 550.085938 979.839844 668.363281 945.449219 983.804688 943.949219 C 983.804688 943.949219 1126.828125 932.988281 1142.78125 923.019531 C 1142.78125 923.019531 1142.78125 923.019531 1142.789062 923.019531 C 1142.789062 923.019531 1142.789062 923.019531 1142.789062 923.011719 C 1142.839844 922.980469 1143.011719 922.839844 1143.308594 922.609375 C 1148.910156 918.25 1198.320312 879.808594 1253.621094 837.628906 C 1312.261719 792.890625 1377.539062 743.929688 1404.238281 726.921875 C 1406.128906 725.71875 1407.808594 724.691406 1409.289062 723.808594 C 1412.519531 721.921875 1414.769531 720.839844 1415.871094 720.699219 C 1415.871094 720.699219 1472.179688 714.398438 1554.871094 714.398438 C 1658.230469 714.398438 1802.800781 724.238281 1930.148438 768.53125 C 1930.148438 768.53125 2197.261719 869.210938 2272.011719 907.078125 C 2272.011719 907.078125 2530.148438 1040.628906 2554.070312 1084.488281 L 2554.078125 1084.511719 L 2554.121094 1084.578125 C 2554.121094 1084.601562 2554.078125 1084.621094 2554.011719 1084.621094 C 2553.511719 1084.621094 2551.378906 1083.941406 2547.960938 1082.839844 L 2500.640625 1069.378906 L 2500.578125 1069.371094 C 2500.558594 1069.371094 2500.460938 1069.371094 2500.269531 1069.371094 C 2497.628906 1069.371094 2477.921875 1069.210938 2449.390625 1064.199219 C 2440.53125 1064.859375 2432.449219 1066.699219 2425.828125 1070.199219 C 2380.648438 1094.109375 2387.960938 1099.441406 2362.710938 1100.769531 C 2361.699219 1100.820312 2360.710938 1100.839844 2359.75 1100.839844 "/>
</clipPath>
<linearGradient id="linear-pattern-1" gradientUnits="userSpaceOnUse" x1="-0.0839593" y1="0" x2="0.521717" y2="0" gradientTransform="matrix(0, -638.047, 638.047, 0, 1534, 1047.28)">
<stop offset="0" stop-color="rgb(98.61145%, 83.677673%, 25.430298%)" stop-opacity="1"/>
<stop offset="0.125" stop-color="rgb(98.61145%, 83.677673%, 25.430298%)" stop-opacity="1"/>
<stop offset="0.15625" stop-color="rgb(98.602295%, 83.558655%, 25.308228%)" stop-opacity="1"/>
<stop offset="0.164062" stop-color="rgb(98.588562%, 83.38623%, 25.132751%)" stop-opacity="1"/>
<stop offset="0.171875" stop-color="rgb(98.583984%, 83.323669%, 24.928284%)" stop-opacity="1"/>
<stop offset="0.179688" stop-color="rgb(98.583984%, 83.308411%, 24.620056%)" stop-opacity="1"/>
<stop offset="0.1875" stop-color="rgb(98.583984%, 83.299255%, 24.299622%)" stop-opacity="1"/>
<stop offset="0.195312" stop-color="rgb(98.582458%, 83.262634%, 24.008179%)" stop-opacity="1"/>
<stop offset="0.203125" stop-color="rgb(98.576355%, 83.175659%, 23.771667%)" stop-opacity="1"/>
<stop offset="0.210938" stop-color="rgb(98.568726%, 83.068848%, 23.556519%)" stop-opacity="1"/>
<stop offset="0.21875" stop-color="rgb(98.55957%, 82.958984%, 23.33374%)" stop-opacity="1"/>
<stop offset="0.226562" stop-color="rgb(98.551941%, 82.849121%, 23.059082%)" stop-opacity="1"/>
<stop offset="0.234375" stop-color="rgb(98.544312%, 82.737732%, 22.740173%)" stop-opacity="1"/>
<stop offset="0.242188" stop-color="rgb(98.536682%, 82.624817%, 22.422791%)" stop-opacity="1"/>
<stop offset="0.25" stop-color="rgb(98.532104%, 82.559204%, 22.148132%)" stop-opacity="1"/>
<stop offset="0.257812" stop-color="rgb(98.530579%, 82.542419%, 21.928406%)" stop-opacity="1"/>
<stop offset="0.265625" stop-color="rgb(98.530579%, 82.536316%, 21.716309%)" stop-opacity="1"/>
<stop offset="0.273438" stop-color="rgb(98.529053%, 82.507324%, 21.504211%)" stop-opacity="1"/>
<stop offset="0.28125" stop-color="rgb(98.522949%, 82.424927%, 21.29364%)" stop-opacity="1"/>
<stop offset="0.289062" stop-color="rgb(98.51532%, 82.318115%, 21.083069%)" stop-opacity="1"/>
<stop offset="0.296875" stop-color="rgb(98.50769%, 82.215881%, 20.880127%)" stop-opacity="1"/>
<stop offset="0.3125" stop-color="rgb(98.504639%, 82.165527%, 20.677185%)" stop-opacity="1"/>
<stop offset="0.328125" stop-color="rgb(98.501587%, 82.119751%, 20.425415%)" stop-opacity="1"/>
<stop offset="0.335938" stop-color="rgb(98.493958%, 82.022095%, 20.175171%)" stop-opacity="1"/>
<stop offset="0.34375" stop-color="rgb(98.486328%, 81.913757%, 19.9646%)" stop-opacity="1"/>
<stop offset="0.351562" stop-color="rgb(98.480225%, 81.828308%, 19.755554%)" stop-opacity="1"/>
<stop offset="0.359375" stop-color="rgb(98.477173%, 81.791687%, 19.546509%)" stop-opacity="1"/>
<stop offset="0.367188" stop-color="rgb(98.477173%, 81.787109%, 19.335938%)" stop-opacity="1"/>
<stop offset="0.375" stop-color="rgb(98.477173%, 81.777954%, 19.12384%)" stop-opacity="1"/>
<stop offset="0.382813" stop-color="rgb(98.474121%, 81.718445%, 18.914795%)" stop-opacity="1"/>
<stop offset="0.390625" stop-color="rgb(98.464966%, 81.611633%, 18.707275%)" stop-opacity="1"/>
<stop offset="0.40625" stop-color="rgb(98.455811%, 81.488037%, 18.432617%)" stop-opacity="1"/>
<stop offset="0.421875" stop-color="rgb(98.451233%, 81.413269%, 18.157959%)" stop-opacity="1"/>
<stop offset="0.4375" stop-color="rgb(98.445129%, 81.340027%, 17.950439%)" stop-opacity="1"/>
<stop offset="0.453125" stop-color="rgb(98.431396%, 81.164551%, 17.745972%)" stop-opacity="1"/>
<stop offset="0.460938" stop-color="rgb(98.423767%, 81.057739%, 17.541504%)" stop-opacity="1"/>
<stop offset="0.46875" stop-color="rgb(98.423767%, 81.051636%, 17.330933%)" stop-opacity="1"/>
<stop offset="0.476562" stop-color="rgb(98.423767%, 81.047058%, 17.121887%)" stop-opacity="1"/>
<stop offset="0.484375" stop-color="rgb(98.422241%, 81.010437%, 16.946411%)" stop-opacity="1"/>
<stop offset="0.5" stop-color="rgb(98.41156%, 80.871582%, 16.777039%)" stop-opacity="1"/>
<stop offset="0.507812" stop-color="rgb(98.399353%, 80.729675%, 16.595459%)" stop-opacity="1"/>
<stop offset="0.515625" stop-color="rgb(98.397827%, 80.686951%, 16.357422%)" stop-opacity="1"/>
<stop offset="0.523438" stop-color="rgb(98.397827%, 80.679321%, 16.044617%)" stop-opacity="1"/>
<stop offset="0.53125" stop-color="rgb(98.397827%, 80.671692%, 15.72876%)" stop-opacity="1"/>
<stop offset="0.546875" stop-color="rgb(98.390198%, 80.566406%, 15.467834%)" stop-opacity="1"/>
<stop offset="0.5625" stop-color="rgb(98.406982%, 80.371094%, 15.22522%)" stop-opacity="1"/>
<stop offset="0.570312" stop-color="rgb(98.483276%, 80.235291%, 14.974976%)" stop-opacity="1"/>
<stop offset="0.578125" stop-color="rgb(98.587036%, 80.155945%, 14.746094%)" stop-opacity="1"/>
<stop offset="0.59375" stop-color="rgb(98.677063%, 80.084229%, 14.480591%)" stop-opacity="1"/>
<stop offset="0.609375" stop-color="rgb(98.716736%, 80.049133%, 14.222717%)" stop-opacity="1"/>
<stop offset="0.625" stop-color="rgb(98.709106%, 79.949951%, 14.021301%)" stop-opacity="1"/>
<stop offset="0.640625" stop-color="rgb(98.695374%, 79.776001%, 13.825989%)" stop-opacity="1"/>
<stop offset="0.65625" stop-color="rgb(98.68927%, 79.696655%, 13.623047%)" stop-opacity="1"/>
<stop offset="0.671875" stop-color="rgb(98.684692%, 79.632568%, 13.35907%)" stop-opacity="1"/>
<stop offset="0.679687" stop-color="rgb(98.675537%, 79.516602%, 13.09967%)" stop-opacity="1"/>
<stop offset="0.6875" stop-color="rgb(98.667908%, 79.411316%, 12.89978%)" stop-opacity="1"/>
<stop offset="0.695312" stop-color="rgb(98.66333%, 79.347229%, 12.696838%)" stop-opacity="1"/>
<stop offset="0.703125" stop-color="rgb(98.661804%, 79.33197%, 12.490845%)" stop-opacity="1"/>
<stop offset="0.710937" stop-color="rgb(98.661804%, 79.327393%, 12.283325%)" stop-opacity="1"/>
<stop offset="0.71875" stop-color="rgb(98.660278%, 79.299927%, 12.077332%)" stop-opacity="1"/>
<stop offset="0.726562" stop-color="rgb(98.654175%, 79.222107%, 11.875916%)" stop-opacity="1"/>
<stop offset="0.734375" stop-color="rgb(98.646545%, 79.118347%, 11.677551%)" stop-opacity="1"/>
<stop offset="0.75" stop-color="rgb(98.634338%, 78.962708%, 11.437988%)" stop-opacity="1"/>
<stop offset="0.765625" stop-color="rgb(98.617554%, 78.756714%, 11.204529%)" stop-opacity="1"/>
<stop offset="0.78125" stop-color="rgb(98.608398%, 78.639221%, 11.009216%)" stop-opacity="1"/>
<stop offset="0.796875" stop-color="rgb(98.606873%, 78.6026%, 10.804749%)" stop-opacity="1"/>
<stop offset="0.8125" stop-color="rgb(98.596191%, 78.479004%, 10.610962%)" stop-opacity="1"/>
<stop offset="0.828125" stop-color="rgb(98.583984%, 78.326416%, 10.420227%)" stop-opacity="1"/>
<stop offset="0.84375" stop-color="rgb(98.580933%, 78.27301%, 10.220337%)" stop-opacity="1"/>
<stop offset="0.859375" stop-color="rgb(98.573303%, 78.186035%, 10.021973%)" stop-opacity="1"/>
<stop offset="0.875" stop-color="rgb(98.55957%, 78.013611%, 9.83429%)" stop-opacity="1"/>
<stop offset="0.890625" stop-color="rgb(98.553467%, 77.926636%, 9.638977%)" stop-opacity="1"/>
<stop offset="0.90625" stop-color="rgb(98.550415%, 77.87323%, 9.388733%)" stop-opacity="1"/>
<stop offset="0.914062" stop-color="rgb(98.54126%, 77.770996%, 9.144592%)" stop-opacity="1"/>
<stop offset="0.921875" stop-color="rgb(98.53363%, 77.66571%, 8.950806%)" stop-opacity="1"/>
<stop offset="0.9375" stop-color="rgb(98.521423%, 77.513123%, 8.744812%)" stop-opacity="1"/>
<stop offset="0.953125" stop-color="rgb(98.506165%, 77.322388%, 8.529663%)" stop-opacity="1"/>
<stop offset="0.960938" stop-color="rgb(98.498535%, 77.230835%, 8.320618%)" stop-opacity="1"/>
<stop offset="0.96875" stop-color="rgb(98.500061%, 77.227783%, 8.11615%)" stop-opacity="1"/>
<stop offset="0.984375" stop-color="rgb(98.495483%, 77.177429%, 7.862854%)" stop-opacity="1"/>
<stop offset="1" stop-color="rgb(98.484802%, 77.027893%, 7.620239%)" stop-opacity="1"/>
</linearGradient>
<clipPath id="clip-6">
<path clip-rule="nonzero" d="M 1344 791 L 2052 791 L 2052 935 L 1344 935 Z M 1344 791 "/>
</clipPath>
<clipPath id="clip-7">
<path clip-rule="nonzero" d="M 2051.738281 924.019531 C 1917.78125 930.710938 1779.019531 934.390625 1635.75 934.410156 C 1625.949219 934.410156 1616.140625 934.390625 1606.289062 934.351562 C 1596.28125 934.320312 1586.230469 934.269531 1576.171875 934.199219 C 1567.941406 934.140625 1559.691406 934.070312 1551.421875 933.988281 C 1540.089844 933.871094 1528.789062 933.738281 1517.519531 933.578125 C 1458.910156 932.761719 1401.101562 931.320312 1344.109375 929.339844 C 1370.160156 896.859375 1397.589844 864.019531 1426.5 831 C 1436.46875 819.601562 1446.421875 808.410156 1456.371094 797.371094 C 1458.769531 796.058594 1461.160156 794.738281 1463.570312 793.441406 L 1463.640625 793.429688 C 1463.640625 793.429688 1493.011719 790.621094 1525.648438 791.449219 C 1550.308594 792.078125 1573.550781 793.210938 1595.160156 794.640625 C 1615.441406 795.988281 1634.28125 797.601562 1651.519531 799.351562 C 1661.558594 800.371094 1671.050781 801.429688 1679.960938 802.5 C 1689.851562 803.691406 1699.03125 804.878906 1707.460938 806.070312 C 1748.628906 811.839844 1771.871094 817.03125 1771.871094 817.03125 C 1887.039062 842.820312 1981.519531 885.070312 2051.738281 924.019531 Z M 2051.738281 924.019531 "/>
</clipPath>
<clipPath id="clip-8">
<path clip-rule="nonzero" d="M 2051.738281 924.019531 C 1917.78125 930.710938 1779.019531 934.390625 1635.75 934.410156 C 1625.949219 934.410156 1616.140625 934.390625 1606.289062 934.351562 C 1596.28125 934.320312 1586.230469 934.269531 1576.171875 934.199219 C 1567.941406 934.140625 1559.691406 934.070312 1551.421875 933.988281 C 1540.089844 933.871094 1528.789062 933.738281 1517.519531 933.578125 C 1458.910156 932.761719 1401.101562 931.320312 1344.109375 929.339844 C 1370.160156 896.859375 1397.589844 864.019531 1426.5 831 C 1436.46875 819.601562 1446.421875 808.410156 1456.371094 797.371094 C 1458.769531 796.058594 1461.160156 794.738281 1463.570312 793.441406 L 1463.640625 793.429688 C 1463.640625 793.429688 1493.011719 790.621094 1525.648438 791.449219 C 1550.308594 792.078125 1573.550781 793.210938 1595.160156 794.640625 C 1615.441406 795.988281 1634.28125 797.601562 1651.519531 799.351562 C 1661.558594 800.371094 1671.050781 801.429688 1679.960938 802.5 C 1689.851562 803.691406 1699.03125 804.878906 1707.460938 806.070312 C 1748.628906 811.839844 1771.871094 817.03125 1771.871094 817.03125 C 1887.039062 842.820312 1981.519531 885.070312 2051.738281 924.019531 "/>
</clipPath>
<linearGradient id="linear-pattern-2" gradientUnits="userSpaceOnUse" x1="-0.182216" y1="0" x2="1.154825" y2="0" gradientTransform="matrix(-31.3952, 189.866, -189.866, -31.3952, 1723.52, 771.89)">
<stop offset="0" stop-color="rgb(82.766724%, 83.099365%, 82.705688%)" stop-opacity="1"/>
<stop offset="0.125" stop-color="rgb(82.766724%, 83.099365%, 82.705688%)" stop-opacity="1"/>
<stop offset="0.1875" stop-color="rgb(82.766724%, 83.099365%, 82.705688%)" stop-opacity="1"/>
<stop offset="0.21875" stop-color="rgb(82.766724%, 83.099365%, 82.705688%)" stop-opacity="1"/>
<stop offset="0.234375" stop-color="rgb(82.766724%, 83.099365%, 82.705688%)" stop-opacity="1"/>
<stop offset="0.238281" stop-color="rgb(82.563782%, 82.951355%, 82.575989%)" stop-opacity="1"/>
<stop offset="0.242188" stop-color="rgb(82.362366%, 82.801819%, 82.446289%)" stop-opacity="1"/>
<stop offset="0.246094" stop-color="rgb(82.069397%, 82.589722%, 82.261658%)" stop-opacity="1"/>
<stop offset="0.25" stop-color="rgb(81.777954%, 82.376099%, 82.073975%)" stop-opacity="1"/>
<stop offset="0.253906" stop-color="rgb(81.494141%, 82.157898%, 81.878662%)" stop-opacity="1"/>
<stop offset="0.257812" stop-color="rgb(81.210327%, 81.939697%, 81.681824%)" stop-opacity="1"/>
<stop offset="0.261719" stop-color="rgb(81.059265%, 81.629944%, 81.317139%)" stop-opacity="1"/>
<stop offset="0.265625" stop-color="rgb(80.906677%, 81.318665%, 80.952454%)" stop-opacity="1"/>
<stop offset="0.269531" stop-color="rgb(80.541992%, 80.955505%, 80.589294%)" stop-opacity="1"/>
<stop offset="0.273438" stop-color="rgb(80.178833%, 80.592346%, 80.226135%)" stop-opacity="1"/>
<stop offset="0.277344" stop-color="rgb(79.803467%, 80.227661%, 79.866028%)" stop-opacity="1"/>
<stop offset="0.28125" stop-color="rgb(79.428101%, 79.864502%, 79.508972%)" stop-opacity="1"/>
<stop offset="0.285156" stop-color="rgb(79.136658%, 79.53949%, 79.171753%)" stop-opacity="1"/>
<stop offset="0.289062" stop-color="rgb(78.843689%, 79.214478%, 78.83606%)" stop-opacity="1"/>
<stop offset="0.292969" stop-color="rgb(78.555298%, 79.01001%, 78.660583%)" stop-opacity="1"/>
<stop offset="0.296875" stop-color="rgb(78.266907%, 78.804016%, 78.483582%)" stop-opacity="1"/>
<stop offset="0.300781" stop-color="rgb(78.089905%, 78.52478%, 78.265381%)" stop-opacity="1"/>
<stop offset="0.304688" stop-color="rgb(77.912903%, 78.245544%, 78.048706%)" stop-opacity="1"/>
<stop offset="0.308594" stop-color="rgb(77.767944%, 78.010559%, 77.787781%)" stop-opacity="1"/>
<stop offset="0.3125" stop-color="rgb(77.62146%, 77.774048%, 77.526855%)" stop-opacity="1"/>
<stop offset="0.316406" stop-color="rgb(77.452087%, 77.575684%, 77.22168%)" stop-opacity="1"/>
<stop offset="0.320312" stop-color="rgb(77.284241%, 77.378845%, 76.916504%)" stop-opacity="1"/>
<stop offset="0.324219" stop-color="rgb(76.99585%, 77.046204%, 76.571655%)" stop-opacity="1"/>
<stop offset="0.328125" stop-color="rgb(76.705933%, 76.713562%, 76.226807%)" stop-opacity="1"/>
<stop offset="0.335938" stop-color="rgb(76.541138%, 76.524353%, 76.029968%)" stop-opacity="1"/>
<stop offset="0.34375" stop-color="rgb(76.23291%, 76.170349%, 75.663757%)" stop-opacity="1"/>
<stop offset="0.351562" stop-color="rgb(75.914001%, 75.834656%, 75.325012%)" stop-opacity="1"/>
<stop offset="0.355469" stop-color="rgb(75.454712%, 75.466919%, 74.990845%)" stop-opacity="1"/>
<stop offset="0.359375" stop-color="rgb(75.169373%, 75.270081%, 74.822998%)" stop-opacity="1"/>
<stop offset="0.363281" stop-color="rgb(74.885559%, 75.07019%, 74.54834%)" stop-opacity="1"/>
<stop offset="0.367188" stop-color="rgb(74.60022%, 74.871826%, 74.273682%)" stop-opacity="1"/>
<stop offset="0.371094" stop-color="rgb(74.40033%, 74.621582%, 74.031067%)" stop-opacity="1"/>
<stop offset="0.375" stop-color="rgb(74.198914%, 74.371338%, 73.788452%)" stop-opacity="1"/>
<stop offset="0.378906" stop-color="rgb(74.057007%, 74.119568%, 73.587036%)" stop-opacity="1"/>
<stop offset="0.382813" stop-color="rgb(73.913574%, 73.867798%, 73.38562%)" stop-opacity="1"/>
<stop offset="0.390625" stop-color="rgb(73.773193%, 73.707581%, 73.222351%)" stop-opacity="1"/>
<stop offset="0.394531" stop-color="rgb(73.353577%, 73.358154%, 72.898865%)" stop-opacity="1"/>
<stop offset="0.398438" stop-color="rgb(73.075867%, 73.167419%, 72.737122%)" stop-opacity="1"/>
<stop offset="0.402344" stop-color="rgb(72.886658%, 72.996521%, 72.575378%)" stop-opacity="1"/>
<stop offset="0.40625" stop-color="rgb(72.694397%, 72.825623%, 72.413635%)" stop-opacity="1"/>
<stop offset="0.414062" stop-color="rgb(72.554016%, 72.668457%, 72.251892%)" stop-opacity="1"/>
<stop offset="0.421875" stop-color="rgb(72.271729%, 72.3526%, 71.929932%)" stop-opacity="1"/>
<stop offset="0.429688" stop-color="rgb(71.990967%, 72.036743%, 71.606445%)" stop-opacity="1"/>
<stop offset="0.4375" stop-color="rgb(71.711731%, 71.723938%, 71.286011%)" stop-opacity="1"/>
<stop offset="0.445312" stop-color="rgb(71.430969%, 71.411133%, 70.967102%)" stop-opacity="1"/>
<stop offset="0.453125" stop-color="rgb(71.151733%, 71.099854%, 70.649719%)" stop-opacity="1"/>
<stop offset="0.460938" stop-color="rgb(70.874023%, 70.7901%, 70.335388%)" stop-opacity="1"/>
<stop offset="0.464844" stop-color="rgb(70.489502%, 70.455933%, 70.022583%)" stop-opacity="1"/>
<stop offset="0.46875" stop-color="rgb(70.243835%, 70.278931%, 69.868469%)" stop-opacity="1"/>
<stop offset="0.472656" stop-color="rgb(70.027161%, 70.162964%, 69.784546%)" stop-opacity="1"/>
<stop offset="0.476562" stop-color="rgb(69.80896%, 70.045471%, 69.702148%)" stop-opacity="1"/>
<stop offset="0.484375" stop-color="rgb(69.685364%, 70.004272%, 69.685364%)" stop-opacity="1"/>
<stop offset="0.492187" stop-color="rgb(69.564819%, 69.841003%, 69.511414%)" stop-opacity="1"/>
<stop offset="0.5" stop-color="rgb(69.454956%, 69.570923%, 69.195557%)" stop-opacity="1"/>
<stop offset="0.507812" stop-color="rgb(69.204712%, 69.270325%, 68.885803%)" stop-opacity="1"/>
<stop offset="0.515625" stop-color="rgb(68.930054%, 68.968201%, 68.579102%)" stop-opacity="1"/>
<stop offset="0.523437" stop-color="rgb(68.65387%, 68.666077%, 68.273926%)" stop-opacity="1"/>
<stop offset="0.53125" stop-color="rgb(68.379211%, 68.362427%, 67.967224%)" stop-opacity="1"/>
<stop offset="0.539062" stop-color="rgb(68.104553%, 68.128967%, 67.750549%)" stop-opacity="1"/>
<stop offset="0.546875" stop-color="rgb(67.860413%, 67.99469%, 67.652893%)" stop-opacity="1"/>
<stop offset="0.554688" stop-color="rgb(67.755127%, 67.823792%, 67.463684%)" stop-opacity="1"/>
<stop offset="0.5625" stop-color="rgb(67.633057%, 67.556763%, 67.158508%)" stop-opacity="1"/>
<stop offset="0.570312" stop-color="rgb(67.372131%, 67.260742%, 66.85791%)" stop-opacity="1"/>
<stop offset="0.578125" stop-color="rgb(67.137146%, 67.00592%, 66.601562%)" stop-opacity="1"/>
<stop offset="0.59375" stop-color="rgb(66.908264%, 66.757202%, 66.351318%)" stop-opacity="1"/>
<stop offset="0.601563" stop-color="rgb(66.639709%, 66.545105%, 66.160583%)" stop-opacity="1"/>
<stop offset="0.609375" stop-color="rgb(66.410828%, 66.416931%, 66.064453%)" stop-opacity="1"/>
<stop offset="0.625" stop-color="rgb(66.181946%, 66.215515%, 65.875244%)" stop-opacity="1"/>
<stop offset="0.632812" stop-color="rgb(66.003418%, 66.061401%, 65.653992%)" stop-opacity="1"/>
<stop offset="0.640625" stop-color="rgb(65.910339%, 65.994263%, 65.498352%)" stop-opacity="1"/>
<stop offset="0.65625" stop-color="rgb(65.733337%, 65.802002%, 65.266418%)" stop-opacity="1"/>
<stop offset="0.664062" stop-color="rgb(65.505981%, 65.557861%, 65.061951%)" stop-opacity="1"/>
<stop offset="0.671875" stop-color="rgb(65.328979%, 65.368652%, 64.93988%)" stop-opacity="1"/>
<stop offset="0.6875" stop-color="rgb(65.101624%, 65.124512%, 64.735413%)" stop-opacity="1"/>
<stop offset="0.703125" stop-color="rgb(64.857483%, 64.863586%, 64.524841%)" stop-opacity="1"/>
<stop offset="0.71875" stop-color="rgb(64.656067%, 64.646912%, 64.328003%)" stop-opacity="1"/>
<stop offset="0.726563" stop-color="rgb(64.546204%, 64.527893%, 64.117432%)" stop-opacity="1"/>
<stop offset="0.734375" stop-color="rgb(64.472961%, 64.448547%, 63.955688%)" stop-opacity="1"/>
<stop offset="0.75" stop-color="rgb(64.297485%, 64.26239%, 63.86261%)" stop-opacity="1"/>
<stop offset="0.757812" stop-color="rgb(64.195251%, 64.152527%, 63.737488%)" stop-opacity="1"/>
<stop offset="0.765625" stop-color="rgb(64.195251%, 64.151001%, 63.595581%)" stop-opacity="1"/>
<stop offset="0.78125" stop-color="rgb(64.022827%, 63.967896%, 63.508606%)" stop-opacity="1"/>
<stop offset="0.796875" stop-color="rgb(63.847351%, 63.781738%, 63.394165%)" stop-opacity="1"/>
<stop offset="0.8125" stop-color="rgb(63.844299%, 63.775635%, 63.252258%)" stop-opacity="1"/>
<stop offset="0.84375" stop-color="rgb(63.845825%, 63.766479%, 63.17749%)" stop-opacity="1"/>
<stop offset="0.875" stop-color="rgb(63.850403%, 63.615417%, 63.124084%)" stop-opacity="1"/>
<stop offset="1" stop-color="rgb(63.85498%, 63.471985%, 63.07373%)" stop-opacity="1"/>
</linearGradient>
<clipPath id="clip-9">
<path clip-rule="nonzero" d="M 1149 726 L 1416 726 L 1416 933 L 1149 933 Z M 1149 726 "/>
</clipPath>
<clipPath id="clip-10">
<path clip-rule="nonzero" d="M 1412.140625 752.578125 C 1365.050781 799.878906 1244.148438 921.148438 1238.308594 926.339844 C 1236.339844 927.789062 1231.398438 929.53125 1228.410156 930.339844 C 1221.109375 932.050781 1213.378906 932.921875 1205.46875 932.921875 C 1183.488281 932.921875 1164.199219 926.261719 1153.789062 921.820312 C 1153.789062 921.820312 1151.839844 920.359375 1149.019531 918.160156 C 1184.058594 890.941406 1356.308594 757.449219 1404.238281 726.921875 L 1409.351562 730.570312 C 1412.019531 732.410156 1413.71875 734.640625 1414.519531 737.328125 C 1416.378906 743.5 1413.171875 750.550781 1412.140625 752.578125 Z M 1412.140625 752.578125 "/>
</clipPath>
<clipPath id="clip-11">
<path clip-rule="nonzero" d="M 1412.140625 752.578125 C 1365.050781 799.878906 1244.148438 921.148438 1238.308594 926.339844 C 1236.339844 927.789062 1231.398438 929.53125 1228.410156 930.339844 C 1221.109375 932.050781 1213.378906 932.921875 1205.46875 932.921875 C 1183.488281 932.921875 1164.199219 926.261719 1153.789062 921.820312 C 1153.789062 921.820312 1151.839844 920.359375 1149.019531 918.160156 C 1184.058594 890.941406 1356.308594 757.449219 1404.238281 726.921875 L 1409.351562 730.570312 C 1412.019531 732.410156 1413.71875 734.640625 1414.519531 737.328125 C 1416.378906 743.5 1413.171875 750.550781 1412.140625 752.578125 "/>
</clipPath>
<linearGradient id="linear-pattern-3" gradientUnits="userSpaceOnUse" x1="-0.139928" y1="0" x2="1.384168" y2="0" gradientTransform="matrix(197.579, 81.3447, -81.3447, 197.579, 1161.2, 775.87)">
<stop offset="0" stop-color="rgb(82.766724%, 83.099365%, 82.705688%)" stop-opacity="1"/>
<stop offset="0.25" stop-color="rgb(82.766724%, 83.099365%, 82.705688%)" stop-opacity="1"/>
<stop offset="0.3125" stop-color="rgb(82.643127%, 83.065796%, 82.704163%)" stop-opacity="1"/>
<stop offset="0.316406" stop-color="rgb(82.302856%, 82.836914%, 82.513428%)" stop-opacity="1"/>
<stop offset="0.320312" stop-color="rgb(82.086182%, 82.641602%, 82.325745%)" stop-opacity="1"/>
<stop offset="0.324219" stop-color="rgb(81.872559%, 82.543945%, 82.269287%)" stop-opacity="1"/>
<stop offset="0.328125" stop-color="rgb(81.65741%, 82.446289%, 82.209778%)" stop-opacity="1"/>
<stop offset="0.332031" stop-color="rgb(81.63147%, 82.260132%, 81.970215%)" stop-opacity="1"/>
<stop offset="0.335938" stop-color="rgb(81.604004%, 82.073975%, 81.7276%)" stop-opacity="1"/>
<stop offset="0.34375" stop-color="rgb(81.416321%, 82.002258%, 81.697083%)" stop-opacity="1"/>
<stop offset="0.347656" stop-color="rgb(81.12793%, 81.706238%, 81.396484%)" stop-opacity="1"/>
<stop offset="0.351562" stop-color="rgb(81.030273%, 81.480408%, 81.12793%)" stop-opacity="1"/>
<stop offset="0.355469" stop-color="rgb(80.670166%, 81.188965%, 80.859375%)" stop-opacity="1"/>
<stop offset="0.359375" stop-color="rgb(80.310059%, 80.897522%, 80.592346%)" stop-opacity="1"/>
<stop offset="0.363281" stop-color="rgb(80.09491%, 80.644226%, 80.325317%)" stop-opacity="1"/>
<stop offset="0.367188" stop-color="rgb(79.878235%, 80.39093%, 80.059814%)" stop-opacity="1"/>
<stop offset="0.371094" stop-color="rgb(79.66156%, 80.13916%, 79.795837%)" stop-opacity="1"/>
<stop offset="0.375" stop-color="rgb(79.446411%, 79.88739%, 79.53186%)" stop-opacity="1"/>
<stop offset="0.378906" stop-color="rgb(79.370117%, 79.794312%, 79.319763%)" stop-opacity="1"/>
<stop offset="0.382812" stop-color="rgb(79.293823%, 79.701233%, 79.10614%)" stop-opacity="1"/>
<stop offset="0.390625" stop-color="rgb(79.133606%, 79.516602%, 79.00238%)" stop-opacity="1"/>
<stop offset="0.394531" stop-color="rgb(78.756714%, 79.083252%, 78.663635%)" stop-opacity="1"/>
<stop offset="0.398438" stop-color="rgb(78.541565%, 78.834534%, 78.430176%)" stop-opacity="1"/>
<stop offset="0.402344" stop-color="rgb(78.343201%, 78.6026%, 78.189087%)" stop-opacity="1"/>
<stop offset="0.40625" stop-color="rgb(78.143311%, 78.370667%, 77.947998%)" stop-opacity="1"/>
<stop offset="0.414062" stop-color="rgb(78.105164%, 78.327942%, 77.903748%)" stop-opacity="1"/>
<stop offset="0.417969" stop-color="rgb(77.857971%, 78.091431%, 77.622986%)" stop-opacity="1"/>
<stop offset="0.421875" stop-color="rgb(77.644348%, 77.897644%, 77.388%)" stop-opacity="1"/>
<stop offset="0.425781" stop-color="rgb(77.433777%, 77.770996%, 77.249146%)" stop-opacity="1"/>
<stop offset="0.429687" stop-color="rgb(77.22168%, 77.641296%, 77.108765%)" stop-opacity="1"/>
<stop offset="0.433594" stop-color="rgb(77.009583%, 77.400208%, 76.947021%)" stop-opacity="1"/>
<stop offset="0.4375" stop-color="rgb(76.797485%, 77.157593%, 76.785278%)" stop-opacity="1"/>
<stop offset="0.441406" stop-color="rgb(76.708984%, 76.94397%, 76.530457%)" stop-opacity="1"/>
<stop offset="0.445312" stop-color="rgb(76.622009%, 76.730347%, 76.275635%)" stop-opacity="1"/>
<stop offset="0.449219" stop-color="rgb(76.472473%, 76.506042%, 76.150513%)" stop-opacity="1"/>
<stop offset="0.453125" stop-color="rgb(76.322937%, 76.281738%, 76.023865%)" stop-opacity="1"/>
<stop offset="0.457031" stop-color="rgb(76.113892%, 76.191711%, 75.868225%)" stop-opacity="1"/>
<stop offset="0.460937" stop-color="rgb(75.90332%, 76.101685%, 75.709534%)" stop-opacity="1"/>
<stop offset="0.464844" stop-color="rgb(75.880432%, 75.926208%, 75.469971%)" stop-opacity="1"/>
<stop offset="0.46875" stop-color="rgb(75.856018%, 75.747681%, 75.230408%)" stop-opacity="1"/>
<stop offset="0.472656" stop-color="rgb(75.646973%, 75.674438%, 75.201416%)" stop-opacity="1"/>
<stop offset="0.476562" stop-color="rgb(75.437927%, 75.59967%, 75.170898%)" stop-opacity="1"/>
<stop offset="0.480469" stop-color="rgb(75.227356%, 75.360107%, 74.923706%)" stop-opacity="1"/>
<stop offset="0.484375" stop-color="rgb(75.016785%, 75.120544%, 74.676514%)" stop-opacity="1"/>
<stop offset="0.488281" stop-color="rgb(74.807739%, 74.880981%, 74.429321%)" stop-opacity="1"/>
<stop offset="0.492187" stop-color="rgb(74.597168%, 74.642944%, 74.183655%)" stop-opacity="1"/>
<stop offset="0.5" stop-color="rgb(74.481201%, 74.511719%, 74.049377%)" stop-opacity="1"/>
<stop offset="0.507812" stop-color="rgb(74.250793%, 74.249268%, 73.779297%)" stop-opacity="1"/>
<stop offset="0.511719" stop-color="rgb(73.927307%, 74.002075%, 73.448181%)" stop-opacity="1"/>
<stop offset="0.515625" stop-color="rgb(73.718262%, 73.887634%, 73.251343%)" stop-opacity="1"/>
<stop offset="0.519531" stop-color="rgb(73.509216%, 73.698425%, 73.161316%)" stop-opacity="1"/>
<stop offset="0.523438" stop-color="rgb(73.301697%, 73.509216%, 73.069763%)" stop-opacity="1"/>
<stop offset="0.527344" stop-color="rgb(73.094177%, 73.275757%, 72.851562%)" stop-opacity="1"/>
<stop offset="0.53125" stop-color="rgb(72.886658%, 73.042297%, 72.634888%)" stop-opacity="1"/>
<stop offset="0.535156" stop-color="rgb(72.86377%, 72.865295%, 72.410583%)" stop-opacity="1"/>
<stop offset="0.539063" stop-color="rgb(72.840881%, 72.688293%, 72.187805%)" stop-opacity="1"/>
<stop offset="0.542969" stop-color="rgb(72.634888%, 72.607422%, 72.146606%)" stop-opacity="1"/>
<stop offset="0.546875" stop-color="rgb(72.427368%, 72.52655%, 72.105408%)" stop-opacity="1"/>
<stop offset="0.550781" stop-color="rgb(72.219849%, 72.349548%, 71.940613%)" stop-opacity="1"/>
<stop offset="0.554688" stop-color="rgb(72.012329%, 72.171021%, 71.774292%)" stop-opacity="1"/>
<stop offset="0.558594" stop-color="rgb(71.806335%, 72.052002%, 71.682739%)" stop-opacity="1"/>
<stop offset="0.5625" stop-color="rgb(71.600342%, 71.929932%, 71.591187%)" stop-opacity="1"/>
<stop offset="0.566406" stop-color="rgb(71.498108%, 71.722412%, 71.353149%)" stop-opacity="1"/>
<stop offset="0.570313" stop-color="rgb(71.3974%, 71.516418%, 71.115112%)" stop-opacity="1"/>
<stop offset="0.574219" stop-color="rgb(71.270752%, 71.41571%, 70.921326%)" stop-opacity="1"/>
<stop offset="0.578125" stop-color="rgb(71.14563%, 71.313477%, 70.727539%)" stop-opacity="1"/>
<stop offset="0.582031" stop-color="rgb(70.939636%, 71.136475%, 70.513916%)" stop-opacity="1"/>
<stop offset="0.585938" stop-color="rgb(70.733643%, 70.956421%, 70.300293%)" stop-opacity="1"/>
<stop offset="0.589844" stop-color="rgb(70.529175%, 70.733643%, 70.20874%)" stop-opacity="1"/>
<stop offset="0.59375" stop-color="rgb(70.324707%, 70.507812%, 70.117188%)" stop-opacity="1"/>
<stop offset="0.597656" stop-color="rgb(70.118713%, 70.288086%, 69.908142%)" stop-opacity="1"/>
<stop offset="0.601562" stop-color="rgb(69.914246%, 70.068359%, 69.697571%)" stop-opacity="1"/>
<stop offset="0.609375" stop-color="rgb(69.73877%, 70.005798%, 69.671631%)" stop-opacity="1"/>
<stop offset="0.613281" stop-color="rgb(69.512939%, 69.749451%, 69.40918%)" stop-opacity="1"/>
<stop offset="0.617188" stop-color="rgb(69.464111%, 69.55719%, 69.17572%)" stop-opacity="1"/>
<stop offset="0.621094" stop-color="rgb(69.261169%, 69.396973%, 68.972778%)" stop-opacity="1"/>
<stop offset="0.625" stop-color="rgb(69.056702%, 69.235229%, 68.768311%)" stop-opacity="1"/>
<stop offset="0.628906" stop-color="rgb(68.948364%, 69.126892%, 68.57605%)" stop-opacity="1"/>
<stop offset="0.632812" stop-color="rgb(68.838501%, 69.020081%, 68.382263%)" stop-opacity="1"/>
<stop offset="0.636719" stop-color="rgb(68.725586%, 68.817139%, 68.249512%)" stop-opacity="1"/>
<stop offset="0.640625" stop-color="rgb(68.611145%, 68.614197%, 68.115234%)" stop-opacity="1"/>
<stop offset="0.644531" stop-color="rgb(68.409729%, 68.39447%, 67.945862%)" stop-opacity="1"/>
<stop offset="0.648438" stop-color="rgb(68.206787%, 68.173218%, 67.776489%)" stop-opacity="1"/>
<stop offset="0.652344" stop-color="rgb(68.005371%, 67.951965%, 67.553711%)" stop-opacity="1"/>
<stop offset="0.65625" stop-color="rgb(67.803955%, 67.732239%, 67.330933%)" stop-opacity="1"/>
<stop offset="0.660156" stop-color="rgb(67.601013%, 67.668152%, 67.169189%)" stop-opacity="1"/>
<stop offset="0.664062" stop-color="rgb(67.396545%, 67.604065%, 67.004395%)" stop-opacity="1"/>
<stop offset="0.667969" stop-color="rgb(67.379761%, 67.424011%, 66.793823%)" stop-opacity="1"/>
<stop offset="0.671875" stop-color="rgb(67.359924%, 67.243958%, 66.581726%)" stop-opacity="1"/>
<stop offset="0.675781" stop-color="rgb(67.160034%, 67.028809%, 66.494751%)" stop-opacity="1"/>
<stop offset="0.679687" stop-color="rgb(66.958618%, 66.812134%, 66.40625%)" stop-opacity="1"/>
<stop offset="0.683594" stop-color="rgb(66.757202%, 66.650391%, 66.259766%)" stop-opacity="1"/>
<stop offset="0.6875" stop-color="rgb(66.555786%, 66.487122%, 66.110229%)" stop-opacity="1"/>
<stop offset="0.691406" stop-color="rgb(66.355896%, 66.374207%, 66.026306%)" stop-opacity="1"/>
<stop offset="0.695312" stop-color="rgb(66.152954%, 66.259766%, 65.940857%)" stop-opacity="1"/>
<stop offset="0.699219" stop-color="rgb(66.059875%, 66.065979%, 65.72113%)" stop-opacity="1"/>
<stop offset="0.703125" stop-color="rgb(65.966797%, 65.870667%, 65.499878%)" stop-opacity="1"/>
<stop offset="0.707031" stop-color="rgb(65.841675%, 65.78064%, 65.322876%)" stop-opacity="1"/>
<stop offset="0.710937" stop-color="rgb(65.716553%, 65.689087%, 65.142822%)" stop-opacity="1"/>
<stop offset="0.714844" stop-color="rgb(65.516663%, 65.52124%, 64.945984%)" stop-opacity="1"/>
<stop offset="0.71875" stop-color="rgb(65.316772%, 65.353394%, 64.749146%)" stop-opacity="1"/>
<stop offset="0.722656" stop-color="rgb(65.119934%, 65.142822%, 64.671326%)" stop-opacity="1"/>
<stop offset="0.726562" stop-color="rgb(64.920044%, 64.930725%, 64.593506%)" stop-opacity="1"/>
<stop offset="0.730469" stop-color="rgb(64.723206%, 64.717102%, 64.248657%)" stop-opacity="1"/>
<stop offset="0.734375" stop-color="rgb(64.526367%, 64.505005%, 63.905334%)" stop-opacity="1"/>
<stop offset="0.738281" stop-color="rgb(64.332581%, 64.266968%, 63.687134%)" stop-opacity="1"/>
<stop offset="0.742188" stop-color="rgb(64.135742%, 64.030457%, 63.468933%)" stop-opacity="1"/>
<stop offset="0.746094" stop-color="rgb(63.995361%, 63.751221%, 63.270569%)" stop-opacity="1"/>
<stop offset="0.75" stop-color="rgb(63.85498%, 63.471985%, 63.07373%)" stop-opacity="1"/>
<stop offset="1" stop-color="rgb(63.85498%, 63.471985%, 63.07373%)" stop-opacity="1"/>
</linearGradient>
</defs>
<path fill-rule="nonzero" fill="rgb(51.477051%, 51.324463%, 51.683044%)" fill-opacity="1" d="M 1491.238281 1447.101562 C 876.8125 1447.101562 378.714844 1415.5 378.714844 1376.53125 C 378.714844 1362.089844 447.058594 1348.660156 564.378906 1337.480469 C 586.414062 1338.640625 602.585938 1338.640625 602.585938 1338.640625 C 602.585938 1338.640625 604.972656 1336.25 609.527344 1333.480469 C 617.496094 1332.828125 625.640625 1332.179688 633.960938 1331.539062 C 667.46875 1385.488281 727.648438 1421.539062 796.179688 1421.539062 C 871.804688 1421.539062 937.265625 1377.640625 967.929688 1314.230469 C 978.347656 1313.878906 988.828125 1313.539062 999.445312 1313.210938 C 1006.28125 1316.070312 1014.558594 1319.199219 1014.558594 1319.199219 L 1030.148438 1329.671875 C 1030.148438 1329.671875 1032.25 1329.601562 1035.738281 1329.601562 C 1047.921875 1329.601562 1077.121094 1330.5 1093.851562 1338.640625 C 1101.019531 1342.128906 1190.199219 1343.289062 1305.890625 1343.289062 C 1537.300781 1343.289062 1874.839844 1338.640625 1874.839844 1338.640625 L 1904.761719 1321.941406 L 1917.519531 1322.019531 L 1951.691406 1312.261719 C 1957.878906 1312.441406 1964.011719 1312.621094 1970.128906 1312.808594 C 2000.5 1376.980469 2066.371094 1421.539062 2142.558594 1421.539062 C 2212.359375 1421.539062 2273.511719 1384.140625 2306.621094 1328.511719 C 2491 1341.109375 2603.769531 1357.980469 2603.769531 1376.53125 C 2603.769531 1415.5 2105.679688 1447.101562 1491.238281 1447.101562 "/>
<path fill-rule="nonzero" fill="rgb(6.596375%, 6.135559%, 5.406189%)" fill-opacity="1" d="M 2394.269531 1296.78125 C 2394.269531 1298.769531 2415.53125 1336.980469 2435.128906 1303.089844 L 2476.988281 1303.089844 L 2483.96875 1298.769531 L 2508.550781 1298.769531 L 2508.550781 1285.148438 L 2403.898438 1285.148438 L 2394.269531 1296.78125 "/>
<path fill-rule="nonzero" fill="rgb(6.596375%, 6.135559%, 5.406189%)" fill-opacity="1" d="M 2589.949219 1289.800781 L 2530.480469 1289.800781 L 2530.480469 1248.941406 L 2589.949219 1248.941406 L 2589.949219 1289.800781 "/>
<path fill-rule="nonzero" fill="rgb(12.860107%, 11.213684%, 11.195374%)" fill-opacity="1" d="M 2589.949219 1277.089844 L 2530.480469 1277.089844 L 2530.480469 1264.378906 L 2589.949219 1264.378906 L 2589.949219 1277.089844 "/>
<path fill-rule="nonzero" fill="rgb(6.596375%, 6.135559%, 5.406189%)" fill-opacity="1" d="M 602.585938 1338.640625 C 602.585938 1338.640625 616.035156 1325.179688 639.957031 1325.179688 C 663.878906 1325.179688 778.992188 1299.769531 831.316406 1299.769531 C 883.644531 1299.769531 935.96875 1299.769531 941.949219 1299.769531 C 947.929688 1299.769531 986.800781 1307.238281 992.777344 1310.230469 C 998.757812 1313.21875 1014.558594 1319.199219 1014.558594 1319.199219 L 1030.148438 1329.671875 C 1030.148438 1329.671875 1072.320312 1328.171875 1093.851562 1338.640625 C 1115.371094 1349.101562 1874.839844 1338.640625 1874.839844 1338.640625 L 1904.761719 1321.941406 L 1917.519531 1322.019531 L 1964.039062 1308.738281 C 1964.039062 1308.738281 1958.058594 1279.300781 1997.929688 1270.101562 C 2037.789062 1260.898438 2113.539062 1248.121094 2139.449219 1251.519531 C 2165.371094 1254.921875 2221.179688 1261.609375 2221.179688 1261.609375 L 2267.359375 1270.101562 L 2314.871094 1289.269531 C 2314.871094 1289.269531 2346.101562 1302.75 2351.421875 1307.410156 C 2356.730469 1312.058594 2368.691406 1282.820312 2368.691406 1282.820312 L 2440.671875 1250.339844 L 2399.25 1109.570312 C 2399.25 1109.570312 2370.019531 1041.628906 2338.789062 1012.230469 C 2307.558594 982.820312 1246.429688 1025.5 1202.578125 1045.519531 C 1175.820312 1057.738281 1132.058594 1053.53125 1089.589844 1049.308594 C 1062.460938 1046.621094 1035.859375 1043.929688 1014.558594 1045.519531 C 990.988281 1047.28125 928.929688 1036.609375 861.964844 1025.929688 C 773.636719 1011.851562 676.773438 997.769531 648.429688 1012.230469 C 598.597656 1037.640625 494.273438 1182.488281 497.597656 1217.710938 C 500.921875 1252.921875 602.585938 1338.640625 602.585938 1338.640625 "/>
<path fill-rule="nonzero" fill="rgb(72.203064%, 55.601501%, 10.945129%)" fill-opacity="1" d="M 2490.949219 957.910156 C 2490.949219 957.910156 2456.910156 990.46875 2453.078125 1026.519531 L 2307.558594 982.820312 L 2338.191406 944.929688 L 2490.949219 957.910156 "/>
<path fill-rule="nonzero" fill="rgb(97.972107%, 73.019409%, 3.726196%)" fill-opacity="1" d="M 2609.550781 1156.238281 L 2609.550781 1209.070312 C 2609.550781 1209.070312 2609.609375 1211.789062 2608.300781 1214.878906 C 2606.570312 1218.949219 2602.441406 1223.679688 2592.609375 1223.679688 C 2592.609375 1223.679688 2583.5 1244.429688 2572.191406 1261.609375 C 2564.210938 1273.78125 2555.140625 1284.148438 2547.429688 1284.148438 C 2547.429688 1284.148438 2366.03125 1298.101562 2351.421875 1307.410156 C 2351.421875 1307.410156 2367.691406 1094.449219 2235.140625 1050.601562 C 2235.140625 1050.601562 2025.828125 974.761719 1953.078125 1148.28125 C 1953.078125 1148.28125 1935.179688 1182.289062 1924.511719 1250.929688 C 1922.859375 1261.46875 1921.390625 1272.828125 1920.179688 1285.019531 C 1919.03125 1296.601562 1918.128906 1308.941406 1917.519531 1322.019531 C 1917.519531 1322.019531 1103.410156 1316.210938 1030.148438 1329.671875 C 1030.148438 1329.671875 1027.46875 1313.640625 1021.761719 1289.269531 C 1019.730469 1280.660156 1017.339844 1271.011719 1014.558594 1260.671875 C 996.792969 1194.738281 963.082031 1100.410156 909.558594 1065.550781 C 909.558594 1065.550781 730.15625 980.160156 630.492188 1109.570312 C 630.492188 1109.570312 570.6875 1223.019531 602.585938 1338.640625 C 602.585938 1338.640625 471.015625 1338.640625 447.097656 1311.730469 C 447.097656 1311.730469 443.074219 1277.351562 436.796875 1248.46875 C 432.714844 1229.671875 427.679688 1213.210938 422.179688 1210.070312 L 407.238281 1203.089844 L 407.238281 1136.308594 C 407.238281 1136.308594 422.179688 1122.359375 467.039062 1120.371094 L 474.328125 1119.808594 L 474.375 1119.800781 L 479.992188 1119.371094 L 487.632812 1116.710938 C 487.632812 1116.710938 496.132812 1068.808594 513.875 1028.730469 C 521.527344 1011.441406 530.898438 995.609375 542.050781 985.71875 C 543.816406 984.148438 545.632812 982.730469 547.480469 981.480469 L 550.085938 979.839844 C 550.085938 979.839844 668.363281 945.449219 983.804688 943.949219 C 983.804688 943.949219 1126.828125 932.988281 1142.78125 923.019531 C 1142.78125 923.019531 1365.671875 749.371094 1409.289062 723.808594 C 1412.519531 721.921875 1414.769531 720.839844 1415.871094 720.699219 C 1415.871094 720.699219 1700.921875 688.800781 1930.148438 768.53125 C 1930.148438 768.53125 2197.261719 869.210938 2272.011719 907.078125 C 2272.011719 907.078125 2530.148438 1040.628906 2554.070312 1084.488281 L 2554.078125 1084.511719 L 2554.121094 1084.578125 C 2554.410156 1085.011719 2555.691406 1086.949219 2557.449219 1090.101562 C 2562.480469 1099.078125 2571.441406 1117.800781 2572.511719 1138.800781 L 2595.929688 1138.800781 C 2595.929688 1138.800781 2601.789062 1142.460938 2603.769531 1151.359375 C 2604.109375 1152.839844 2604.328125 1154.460938 2604.398438 1156.238281 L 2609.550781 1156.238281 "/>
<g clip-path="url(#clip-0)">
<g clip-path="url(#clip-1)">
<g clip-path="url(#clip-2)">
<path fill-rule="nonzero" fill="url(#linear-pattern-0)" d="M 544.742188 1084.578125 L 2554.121094 1084.578125 L 2554.121094 837.628906 L 544.742188 837.628906 Z M 544.742188 1084.578125 "/>
</g>
</g>
</g>
<g clip-path="url(#clip-3)">
<g clip-path="url(#clip-4)">
<g clip-path="url(#clip-5)">
<path fill-rule="nonzero" fill="url(#linear-pattern-1)" d="M 513.875 1100.851562 L 2554.121094 1100.851562 L 2554.121094 714.398438 L 513.875 714.398438 Z M 513.875 1100.851562 "/>
</g>
</g>
</g>
<path fill-rule="nonzero" fill="rgb(12.860107%, 11.213684%, 11.195374%)" fill-opacity="1" d="M 1460.71875 751.101562 C 1460.71875 751.101562 1834.46875 725.679688 2082.640625 873.691406 C 2082.640625 873.691406 2162.378906 918.039062 2075.671875 935.980469 C 2075.671875 935.980469 1980.980469 948.441406 1249.921875 943.960938 L 1419.191406 769.871094 C 1419.191406 769.871094 1442.511719 751.960938 1460.71875 751.101562 "/>
<g clip-path="url(#clip-6)">
<g clip-path="url(#clip-7)">
<g clip-path="url(#clip-8)">
<path fill-rule="nonzero" fill="url(#linear-pattern-2)" d="M 2074.882812 794.445312 L 1362.941406 676.722656 L 1320.964844 930.582031 L 2032.90625 1048.304688 Z M 2074.882812 794.445312 "/>
</g>
</g>
</g>
<path fill-rule="nonzero" fill="rgb(12.860107%, 11.213684%, 11.195374%)" fill-opacity="1" d="M 1416.859375 756.078125 C 1416.859375 756.078125 1245.691406 928.011719 1241.941406 930.878906 C 1238.210938 933.761719 1229.828125 935.980469 1229.828125 935.980469 C 1184.640625 946.621094 1142.78125 923.019531 1142.78125 923.019531 C 1142.78125 923.019531 1365.671875 749.371094 1409.289062 723.808594 C 1429.839844 734.050781 1416.859375 756.078125 1416.859375 756.078125 "/>
<path fill-rule="nonzero" fill="rgb(63.656616%, 63.516235%, 63.117981%)" fill-opacity="1" d="M 1412.140625 752.578125 C 1365.050781 799.878906 1244.148438 921.148438 1238.308594 926.339844 C 1236.339844 927.789062 1231.398438 929.53125 1228.410156 930.339844 C 1221.109375 932.050781 1213.378906 932.921875 1205.46875 932.921875 C 1183.488281 932.921875 1164.199219 926.261719 1153.789062 921.820312 C 1153.789062 921.820312 1151.839844 920.359375 1149.019531 918.160156 C 1184.058594 890.941406 1356.308594 757.449219 1404.238281 726.921875 L 1409.351562 730.570312 C 1412.019531 732.410156 1413.71875 734.640625 1414.519531 737.328125 C 1416.378906 743.5 1413.171875 750.550781 1412.140625 752.578125 "/>
<g clip-path="url(#clip-9)">
<g clip-path="url(#clip-10)">
<g clip-path="url(#clip-11)">
<path fill-rule="nonzero" fill="url(#linear-pattern-3)" d="M 1187.769531 632.800781 L 1076.5 903.0625 L 1377.628906 1027.039062 L 1488.898438 756.777344 Z M 1187.769531 632.800781 "/>
</g>
</g>
</g>
<path fill-rule="nonzero" fill="rgb(97.972107%, 73.019409%, 3.726196%)" fill-opacity="1" d="M 2596.089844 908.480469 C 2596.070312 908.71875 2596.039062 908.960938 2596.011719 909.21875 L 2595.980469 909.390625 C 2595.410156 914.070312 2593.570312 919.28125 2589.25 924.191406 C 2583.660156 930.550781 2573.910156 936.410156 2557.390625 939.960938 C 2504.898438 951.269531 2490.949219 957.910156 2490.949219 957.910156 C 2469.828125 961.488281 2451.96875 962.101562 2438.949219 961.890625 C 2428.191406 961.71875 2397.761719 960.589844 2361.378906 949.929688 C 2355.691406 948.269531 2345.191406 944.621094 2324.171875 937.308594 C 2315.660156 934.359375 2307.898438 931.621094 2301.070312 929.171875 C 2294.109375 926.699219 2288.128906 924.53125 2283.261719 922.769531 L 2283.25 922.769531 C 2278.25 917.980469 2274.378906 913.640625 2271.71875 910.429688 C 2268.828125 906.941406 2267.359375 904.769531 2267.359375 904.769531 L 2405.230469 910.730469 C 2405.230469 910.730469 2417.859375 900.769531 2438.449219 898.769531 C 2459.050781 896.78125 2593.941406 894.121094 2593.941406 894.121094 C 2593.941406 894.121094 2594.859375 896.089844 2595.519531 899.269531 C 2595.808594 900.621094 2596.039062 902.199219 2596.160156 903.921875 C 2596.25 905.339844 2596.238281 906.871094 2596.089844 908.480469 "/>
<path fill-rule="nonzero" fill="rgb(12.860107%, 11.213684%, 11.195374%)" fill-opacity="1" d="M 1134.300781 952.488281 C 1130.410156 952.488281 1105.539062 954.648438 1096.511719 1008.828125 C 1086.929688 1066.300781 1106.191406 1239.480469 1107.421875 1250.339844 C 1125.710938 1250.109375 1584.011719 1244.371094 1634.800781 1244.371094 C 1685.941406 1244.371094 1702.210938 1203.300781 1702.371094 1202.878906 C 1702.960938 1201.578125 1760.871094 1076.21875 1777.441406 1026.328125 C 1793.058594 979.328125 1779.289062 948.878906 1777.640625 945.511719 L 1134.808594 952.511719 C 1134.789062 952.511719 1134.609375 952.488281 1134.300781 952.488281 Z M 1106.378906 1251.519531 L 1106.320312 1251 C 1106.109375 1249.171875 1085.5 1067.839844 1095.359375 1008.640625 C 1100.539062 977.570312 1110.941406 963.648438 1118.75 957.449219 C 1127.300781 950.660156 1134.558594 951.320312 1134.859375 951.351562 L 1778.339844 944.339844 L 1778.5 944.648438 C 1778.671875 944.960938 1795.210938 976.550781 1778.539062 1026.699219 C 1761.949219 1076.648438 1704.019531 1202.070312 1703.441406 1203.328125 C 1703.289062 1203.71875 1686.761719 1245.53125 1634.800781 1245.53125 C 1583.238281 1245.53125 1111.660156 1251.449219 1106.910156 1251.511719 L 1106.378906 1251.519531 "/>
<path fill-rule="nonzero" fill="rgb(98.667908%, 92.010498%, 60.035706%)" fill-opacity="1" d="M 616.539062 1135.609375 C 616.539062 1135.609375 461.898438 1145.710938 407.238281 1138.128906 L 407.238281 1136.308594 C 407.238281 1136.308594 422.179688 1122.359375 467.039062 1120.371094 L 474.328125 1119.808594 C 472.679688 1120.378906 431.503906 1134.660156 481.65625 1135.308594 C 532.816406 1135.980469 563.714844 1135.308594 563.714844 1135.308594 L 616.539062 1135.609375 "/>
<path fill-rule="nonzero" fill="rgb(72.203064%, 55.601501%, 10.945129%)" fill-opacity="1" d="M 497.597656 1217.710938 C 497.597656 1217.710938 463.886719 1221.859375 436.796875 1248.46875 C 432.714844 1229.671875 427.679688 1213.210938 422.179688 1210.070312 L 497.597656 1217.710938 "/>
<path fill-rule="nonzero" fill="rgb(72.203064%, 55.601501%, 10.945129%)" fill-opacity="1" d="M 2592.609375 1223.679688 C 2592.609375 1223.679688 2583.5 1244.429688 2572.191406 1261.609375 C 2514.859375 1245.351562 2408.550781 1242.949219 2408.550781 1242.949219 L 2592.609375 1223.679688 "/>
<path fill-rule="nonzero" fill="rgb(12.860107%, 11.213684%, 11.195374%)" fill-opacity="1" d="M 1924.511719 1250.929688 C 1922.859375 1261.46875 1921.390625 1272.828125 1920.179688 1285.019531 L 1021.761719 1289.269531 C 1019.730469 1280.660156 1017.339844 1271.011719 1014.558594 1260.671875 L 1924.511719 1250.929688 "/>
<path fill-rule="nonzero" fill="rgb(98.667908%, 92.010498%, 60.035706%)" fill-opacity="1" d="M 2596.089844 908.480469 C 2596.070312 908.71875 2596.039062 908.960938 2596.011719 909.21875 C 2548.148438 910.53125 2461.578125 912.859375 2455.828125 912.53125 C 2447.871094 912.078125 2444.539062 931.589844 2435.238281 933.289062 C 2429.519531 934.339844 2364.050781 931.199219 2314.460938 928.621094 C 2307.511719 926.140625 2301.519531 923.980469 2296.660156 922.210938 L 2296.648438 922.210938 C 2291.648438 917.421875 2287.78125 913.078125 2285.109375 909.871094 L 2418.621094 915.648438 C 2418.621094 915.648438 2431.25 905.691406 2451.839844 903.691406 C 2468.71875 902.058594 2562.179688 899.980469 2595.519531 899.269531 C 2595.808594 900.621094 2596.039062 902.199219 2596.160156 903.921875 C 2596.25 905.339844 2596.238281 906.871094 2596.089844 908.480469 "/>
<path fill-rule="nonzero" fill="rgb(98.667908%, 92.010498%, 60.035706%)" fill-opacity="1" d="M 2603.769531 1151.359375 C 2548.929688 1152.589844 2455.070312 1147.28125 2455.070312 1147.28125 C 2582.441406 1149.738281 2572.511719 1138.800781 2572.511719 1138.800781 L 2595.929688 1138.800781 C 2595.929688 1138.800781 2601.789062 1142.460938 2603.769531 1151.359375 "/>
<path fill-rule="nonzero" fill="rgb(74.578857%, 11.042786%, 17.58728%)" fill-opacity="1" d="M 2572.511719 1138.800781 C 2559.050781 1150.929688 2455.070312 1147.28125 2455.070312 1147.28125 L 2480.980469 1090.101562 L 2557.449219 1090.101562 C 2559.609375 1093.941406 2562.46875 1099.570312 2565.140625 1106.378906 C 2567.710938 1112.949219 2570.078125 1120.628906 2571.429688 1128.890625 C 2571.960938 1132.121094 2572.328125 1135.429688 2572.511719 1138.800781 "/>
<path fill-rule="nonzero" fill="rgb(92.980957%, 11.471558%, 14.03656%)" fill-opacity="1" d="M 2571.429688 1128.890625 C 2559.371094 1130.230469 2539.089844 1131.511719 2505.511719 1131.511719 C 2502.140625 1131.511719 2498.878906 1131.5 2495.800781 1131.480469 L 2508.480469 1106.378906 L 2565.140625 1106.378906 C 2567.710938 1112.949219 2570.078125 1120.628906 2571.429688 1128.890625 "/>
<path fill-rule="nonzero" fill="rgb(12.860107%, 11.213684%, 11.195374%)" fill-opacity="1" d="M 407.238281 1158.238281 C 407.238281 1158.238281 409.890625 1163.890625 500.589844 1163.890625 L 500.589844 1188.46875 C 500.589844 1188.46875 409.898438 1186.808594 407.238281 1180.828125 L 407.238281 1158.238281 "/>
<path fill-rule="nonzero" fill="rgb(12.860107%, 11.213684%, 11.195374%)" fill-opacity="1" d="M 2456.730469 1167.210938 L 2456.730469 1177.179688 L 2542.769531 1177.179688 L 2542.769531 1167.210938 L 2456.730469 1167.210938 "/>
<path fill-rule="nonzero" fill="rgb(12.860107%, 11.213684%, 11.195374%)" fill-opacity="1" d="M 2468.078125 1186.148438 L 2468.078125 1196.109375 L 2542.769531 1196.109375 L 2542.769531 1186.148438 L 2468.078125 1186.148438 "/>
<path fill-rule="nonzero" fill="rgb(12.860107%, 11.213684%, 11.195374%)" fill-opacity="1" d="M 2481.699219 1204.921875 L 2481.699219 1214.878906 L 2542.769531 1214.878906 L 2542.769531 1204.921875 L 2481.699219 1204.921875 "/>
<path fill-rule="nonzero" fill="rgb(12.860107%, 11.213684%, 11.195374%)" fill-opacity="1" d="M 2609.550781 1167.210938 L 2609.550781 1177.171875 L 2550.421875 1177.171875 L 2550.421875 1167.210938 L 2609.550781 1167.210938 "/>
<path fill-rule="nonzero" fill="rgb(12.860107%, 11.213684%, 11.195374%)" fill-opacity="1" d="M 2609.550781 1186.148438 L 2609.550781 1196.109375 L 2550.421875 1196.109375 L 2550.421875 1186.148438 L 2609.550781 1186.148438 "/>
<path fill-rule="nonzero" fill="rgb(12.860107%, 11.213684%, 11.195374%)" fill-opacity="1" d="M 2609.550781 1204.921875 L 2609.550781 1209.070312 C 2609.550781 1209.070312 2609.609375 1211.789062 2608.300781 1214.878906 L 2550.421875 1214.878906 L 2550.421875 1204.921875 L 2609.550781 1204.921875 "/>
<path fill-rule="nonzero" fill="rgb(56.408691%, 58.380127%, 59.469604%)" fill-opacity="1" d="M 547.480469 981.480469 C 547.480469 981.480469 451.898438 1045.949219 489.035156 1109.570312 L 547.480469 981.480469 "/>
<path fill-rule="nonzero" fill="rgb(82.69043%, 83.145142%, 82.836914%)" fill-opacity="1" d="M 485.792969 1104.351562 C 473.699219 1079.898438 479.5 1052.589844 503.078125 1023.121094 C 515.539062 1007.539062 530.097656 995.238281 538.570312 988.671875 L 485.792969 1104.351562 "/>
<path fill-rule="nonzero" fill="rgb(97.972107%, 73.019409%, 3.726196%)" fill-opacity="1" d="M 1727.660156 1021.03125 L 1644.601562 1021.03125 C 1641.390625 1021.03125 1638.789062 1018.429688 1638.789062 1015.21875 L 1638.789062 1009.238281 C 1638.789062 1006.03125 1641.390625 1003.421875 1644.601562 1003.421875 L 1727.660156 1003.421875 C 1730.871094 1003.421875 1733.46875 1006.03125 1733.46875 1009.238281 L 1733.46875 1015.21875 C 1733.46875 1018.429688 1730.871094 1021.03125 1727.660156 1021.03125 "/>
<path fill-rule="nonzero" fill="rgb(97.972107%, 73.019409%, 3.726196%)" fill-opacity="1" d="M 1404.949219 915.648438 C 1404.949219 915.648438 1401.789062 921.699219 1395.089844 927.859375 L 1395.078125 927.859375 C 1387.050781 935.238281 1373.941406 942.769531 1355.121094 940.230469 C 1345.011719 936.789062 1337.039062 938.070312 1335.351562 941.761719 C 1335.109375 942.289062 1334.191406 944.628906 1337.128906 949.148438 C 1331.660156 949.210938 1326.199219 949.269531 1320.738281 949.339844 C 1312.839844 949.421875 1304.929688 949.5 1297.019531 949.589844 C 1293.339844 949.628906 1289.648438 949.671875 1285.96875 949.710938 C 1290.75 938.390625 1300.46875 919.449219 1319.308594 901.710938 C 1336.191406 885.839844 1353.421875 877.460938 1364.421875 873.128906 C 1364.421875 873.128906 1392.839844 867.570312 1403.871094 882.800781 L 1403.871094 882.808594 C 1408.578125 889.300781 1410.121094 899.570312 1404.949219 915.648438 "/>
<path fill-rule="nonzero" fill="rgb(98.667908%, 92.010498%, 60.035706%)" fill-opacity="1" d="M 1403.871094 882.800781 L 1403.871094 882.808594 C 1403.851562 883.519531 1402.539062 914.71875 1370.519531 910.921875 C 1338.511719 907.128906 1305 917.429688 1297.019531 949.589844 C 1293.339844 949.628906 1289.648438 949.671875 1285.96875 949.710938 C 1290.75 938.390625 1300.46875 919.449219 1319.308594 901.710938 C 1336.191406 885.839844 1353.421875 877.460938 1364.421875 873.128906 C 1364.421875 873.128906 1392.839844 867.570312 1403.871094 882.800781 "/>
<path fill-rule="nonzero" fill="rgb(72.203064%, 55.601501%, 10.945129%)" fill-opacity="1" d="M 1395.078125 927.859375 C 1387.050781 935.238281 1373.941406 942.769531 1355.121094 940.230469 C 1345.011719 936.789062 1337.039062 938.070312 1335.351562 941.761719 C 1335.109375 942.289062 1334.191406 944.628906 1337.128906 949.148438 C 1331.660156 949.210938 1326.199219 949.269531 1320.738281 949.339844 C 1323.640625 943.589844 1330.78125 932.960938 1344.109375 932.921875 C 1362.378906 932.851562 1395.078125 927.859375 1395.078125 927.859375 "/>
<path fill-rule="nonzero" fill="rgb(8.966064%, 8.473206%, 7.852173%)" fill-opacity="1" d="M 796.179688 1421.539062 C 691.253906 1421.539062 605.890625 1337.03125 605.890625 1233.160156 C 605.890625 1129.289062 691.253906 1044.78125 796.179688 1044.78125 C 901.105469 1044.78125 986.46875 1129.289062 986.46875 1233.160156 C 986.46875 1337.03125 901.105469 1421.539062 796.179688 1421.539062 "/>
<path fill-rule="nonzero" fill="rgb(56.829834%, 58.34198%, 59.420776%)" fill-opacity="1" d="M 945.25 1232.289062 C 945.25 1315.148438 878.082031 1382.320312 795.222656 1382.320312 C 712.363281 1382.320312 645.195312 1315.148438 645.195312 1232.289062 C 645.195312 1149.429688 712.363281 1082.261719 795.222656 1082.261719 C 878.082031 1082.261719 945.25 1149.429688 945.25 1232.289062 "/>
<path fill-rule="nonzero" fill="rgb(6.596375%, 6.135559%, 5.406189%)" fill-opacity="1" d="M 921.035156 1229.730469 C 921.035156 1268.429688 902.59375 1302.808594 874.015625 1324.570312 C 853.992188 1339.820312 829.003906 1348.878906 801.886719 1348.878906 C 736.085938 1348.878906 682.746094 1295.53125 682.746094 1229.730469 C 682.746094 1163.929688 736.085938 1110.578125 801.886719 1110.578125 C 836.652344 1110.578125 867.933594 1125.480469 889.710938 1149.21875 C 909.164062 1170.429688 921.035156 1198.679688 921.035156 1229.730469 "/>
<path fill-rule="nonzero" fill="rgb(28.819275%, 29.037476%, 29.568481%)" fill-opacity="1" d="M 691.386719 1185.121094 C 691.386719 1185.121094 683.179688 1171.199219 691.386719 1157.238281 C 699.589844 1143.289062 739.457031 1108.410156 759.390625 1109.570312 C 779.324219 1110.730469 781.984375 1108.410156 781.984375 1108.410156 L 781.984375 1088.140625 C 781.984375 1088.140625 705.902344 1104.140625 695.273438 1122.050781 C 684.640625 1139.96875 674.675781 1147.609375 672.347656 1152.261719 C 670.023438 1156.910156 664.042969 1169.871094 664.042969 1174.851562 C 664.042969 1179.828125 664.042969 1183.089844 666.699219 1185.121094 C 669.359375 1187.140625 677 1190.800781 680.320312 1191.128906 C 683.644531 1191.460938 691.386719 1185.121094 691.386719 1185.121094 "/>
<path fill-rule="nonzero" fill="rgb(28.819275%, 29.037476%, 29.568481%)" fill-opacity="1" d="M 917.140625 1227.230469 C 917.140625 1285.308594 870.054688 1332.398438 811.96875 1332.398438 C 753.878906 1332.398438 706.792969 1285.308594 706.792969 1227.230469 C 706.792969 1169.140625 753.878906 1122.050781 811.96875 1122.050781 C 870.054688 1122.050781 917.140625 1169.140625 917.140625 1227.230469 "/>
<path fill-rule="nonzero" fill="rgb(28.819275%, 29.037476%, 29.568481%)" fill-opacity="1" d="M 812.359375 1111.039062 C 816.558594 1108.679688 824.050781 1105.28125 833.5625 1105.421875 C 836.777344 1105.460938 842.9375 1105.949219 855.488281 1112.140625 C 861.011719 1114.871094 875.097656 1122.261719 891.367188 1138.058594 C 908.667969 1154.859375 909.746094 1163 909.929688 1166.210938 C 910.179688 1170.53125 909.285156 1174.128906 908.5 1176.480469 C 914.5 1176.480469 920.5 1176.480469 926.5 1176.480469 C 926.5 1176.480469 901.085938 1121.730469 880.652344 1110.578125 C 860.222656 1099.441406 841.78125 1094.949219 841.78125 1094.949219 L 811.96875 1091.960938 C 812.097656 1098.320312 812.226562 1104.679688 812.359375 1111.039062 "/>
<path fill-rule="nonzero" fill="rgb(28.819275%, 29.037476%, 29.568481%)" fill-opacity="1" d="M 679.085938 1214.039062 C 676.199219 1216.078125 671.625 1219.898438 668.207031 1226.140625 C 666.464844 1229.320312 665.464844 1232.308594 664.875 1234.730469 C 666.269531 1259.339844 672.703125 1277.558594 677.683594 1288.699219 C 685.75 1306.738281 692.691406 1312.210938 697.265625 1314.96875 C 706.984375 1320.820312 717.097656 1321.050781 722.679688 1320.699219 C 713.433594 1324.601562 704.1875 1328.5 694.941406 1332.398438 L 664.042969 1296.78125 C 664.042969 1296.78125 654.410156 1270.859375 653.742188 1264.21875 C 653.078125 1257.570312 649.09375 1244.949219 649.09375 1236.980469 C 649.09375 1229 648.429688 1216.230469 653.078125 1213.980469 C 655.28125 1212.910156 659.054688 1205.761719 666.367188 1205.910156 C 674.195312 1206.078125 678.726562 1213.441406 679.085938 1214.039062 "/>
<path fill-rule="nonzero" fill="rgb(52.122498%, 29.634094%, 10.847473%)" fill-opacity="1" d="M 921.035156 1229.730469 C 921.035156 1268.429688 902.59375 1302.808594 874.015625 1324.570312 C 866.875 1319.320312 865.199219 1297.78125 865.199219 1297.78125 C 865.199219 1297.78125 864.980469 1296.230469 864.734375 1293.960938 C 864.164062 1288.609375 863.457031 1279.21875 865.199219 1276.589844 C 894.105469 1245.949219 869.6875 1204.089844 869.234375 1197.390625 C 868.910156 1192.570312 877.328125 1172.269531 882.59375 1161.140625 C 884.640625 1156.820312 886.210938 1153.890625 886.628906 1153.75 C 886.628906 1153.75 888.152344 1151.488281 889.710938 1149.21875 C 909.164062 1170.429688 921.035156 1198.679688 921.035156 1229.730469 "/>
<path fill-rule="nonzero" fill="rgb(28.819275%, 29.037476%, 29.568481%)" fill-opacity="1" d="M 930.734375 1216.539062 C 933.308594 1232.550781 934.855469 1258.488281 923.84375 1285.421875 C 918.964844 1297.351562 910.308594 1318.511719 891.949219 1323.351562 C 888.980469 1324.140625 886.40625 1324.320312 884.640625 1324.351562 C 886.632812 1328.449219 888.628906 1332.550781 890.621094 1336.640625 L 910.886719 1324.679688 L 927.496094 1300.101562 L 940.015625 1265.550781 L 945.164062 1227.230469 L 940.015625 1219.699219 C 936.921875 1218.648438 933.828125 1217.601562 930.734375 1216.539062 "/>
<path fill-rule="nonzero" fill="rgb(67.514038%, 48.060608%, 11.398315%)" fill-opacity="1" d="M 905.070312 1256.160156 C 902.070312 1266.601562 895.949219 1267.421875 889.828125 1283.378906 C 886.757812 1291.398438 886.488281 1295.910156 882.398438 1298.019531 C 877.242188 1300.691406 870.167969 1297.398438 864.734375 1293.960938 C 864.164062 1288.609375 863.457031 1279.21875 865.199219 1276.589844 C 894.105469 1245.949219 869.6875 1204.089844 869.234375 1197.390625 C 868.910156 1192.570312 877.328125 1172.269531 882.59375 1161.140625 C 893.980469 1164.578125 901.734375 1181.820312 901.734375 1181.820312 L 901.585938 1227.230469 C 907.558594 1240.820312 906.789062 1250.191406 905.070312 1256.160156 "/>
<path fill-rule="nonzero" fill="rgb(6.596375%, 6.135559%, 5.406189%)" fill-opacity="1" d="M 752.828125 1327.179688 C 751.574219 1324.5 749.210938 1318.679688 749.6875 1311.988281 C 752.941406 1314.378906 756.339844 1316.601562 759.863281 1318.609375 C 757.027344 1321.890625 754.625 1324.878906 752.828125 1327.179688 "/>
<path fill-rule="nonzero" fill="rgb(20.243835%, 20.19043%, 20.014954%)" fill-opacity="1" d="M 842.117188 1319.679688 C 837.597656 1315.949219 831.003906 1310.628906 822.847656 1304.441406 C 812.492188 1296.589844 807.257812 1292.648438 804.40625 1291.671875 C 802.839844 1291.128906 801.210938 1290.878906 799.535156 1290.878906 C 786.230469 1290.878906 770.179688 1306.671875 759.863281 1318.609375 C 756.339844 1316.601562 752.941406 1314.378906 749.6875 1311.988281 C 749.816406 1310.199219 750.144531 1308.351562 750.75 1306.480469 C 752.824219 1300.089844 757.796875 1297.109375 766.535156 1289.589844 C 772.515625 1284.441406 788.460938 1278.390625 791.550781 1276.601562 C 791.839844 1276.429688 792.355469 1276.359375 793.054688 1276.359375 C 799.828125 1276.359375 823.769531 1283.5 823.769531 1283.5 C 829.886719 1295.558594 836.003906 1307.621094 842.117188 1319.679688 "/>
<path fill-rule="nonzero" fill="rgb(20.243835%, 20.19043%, 20.014954%)" fill-opacity="1" d="M 855.308594 1299.050781 C 855.117188 1299.050781 854.929688 1299.03125 854.738281 1298.988281 C 851.253906 1298.269531 820.851562 1276.839844 820.851562 1276.589844 C 820.851562 1276.339844 793.316406 1189.140625 795.871094 1186.148438 C 798.429688 1183.160156 795.4375 1164.039062 798.429688 1161.140625 C 801.417969 1158.238281 812.050781 1147.121094 812.050781 1147.121094 C 812.050781 1147.121094 821.851562 1181.660156 830.820312 1187.640625 C 838.585938 1192.820312 862.199219 1193.171875 868.402344 1193.171875 C 869.359375 1193.171875 869.902344 1193.160156 869.910156 1193.160156 L 857.230469 1219.039062 L 877.859375 1227.230469 C 877.859375 1227.230469 852.246094 1246.941406 853.246094 1254.921875 C 854.242188 1262.890625 861.511719 1293.429688 861.511719 1293.429688 C 861.511719 1293.429688 858.574219 1299.050781 855.308594 1299.050781 "/>
<path fill-rule="nonzero" fill="rgb(28.819275%, 29.037476%, 29.568481%)" fill-opacity="1" d="M 749.28125 1334.359375 C 749.917969 1339.828125 751.9375 1349.691406 759.558594 1357.570312 C 767.558594 1365.851562 777.144531 1367.128906 795.1875 1369.289062 C 795.1875 1369.289062 831.714844 1373.640625 850.753906 1361.480469 C 855.945312 1358.160156 858.476562 1353.671875 858.476562 1353.671875 C 860.167969 1350.671875 860.734375 1347.839844 860.957031 1346.128906 C 862.375 1351.191406 863.789062 1356.25 865.203125 1361.308594 C 843.757812 1372.28125 824.8125 1376.609375 811.96875 1378.5 C 802.1875 1379.949219 758.03125 1388.609375 745.480469 1368.539062 C 743.609375 1365.550781 737.632812 1362.988281 737.632812 1355.050781 C 737.632812 1350.511719 732.535156 1340.210938 737.632812 1335.648438 C 741.117188 1332.53125 746.960938 1333.738281 749.28125 1334.359375 "/>
<path fill-rule="nonzero" fill="rgb(56.829834%, 58.34198%, 59.420776%)" fill-opacity="1" d="M 939.257812 1243.25 C 939.257812 1243.25 938.992188 1245.730469 938.628906 1248.199219 C 934.433594 1277.019531 920.640625 1300.519531 920.640625 1300.519531 C 917.871094 1305.648438 915.03125 1309.578125 912.824219 1312.328125 C 904.402344 1322.851562 897.097656 1326.359375 894.269531 1325.96875 C 892.25 1325.699219 890.128906 1325.019531 890.128906 1325.019531 C 886.5625 1323.878906 880.480469 1321.308594 871.433594 1309.109375 C 865.570312 1301.21875 861.257812 1293.511719 857.085938 1284.601562 C 848.839844 1267.011719 845.128906 1258.019531 846.640625 1251.238281 C 849.246094 1239.511719 862.035156 1234.011719 887.617188 1223 C 917.199219 1210.25 925.605469 1214.421875 928.070312 1215.851562 C 928.070312 1215.851562 929.765625 1216.808594 931.316406 1218.179688 C 932.367188 1219.121094 939.640625 1226.410156 939.742188 1237.878906 C 939.75 1239.179688 939.675781 1241.03125 939.257812 1243.25 Z M 844.507812 1367.601562 C 841.738281 1368.878906 837.253906 1370.578125 831.234375 1371.300781 C 827.515625 1371.949219 821.710938 1372.851562 814.558594 1373.519531 C 785.96875 1376.191406 771.183594 1371.761719 765.46875 1369.730469 C 764.648438 1369.441406 756.589844 1366.5 751.605469 1361.03125 C 747.625 1356.671875 746.097656 1351.710938 746.097656 1351.710938 C 745.1875 1348.921875 742.804688 1339.628906 761.433594 1315.53125 C 777.550781 1294.710938 785.605469 1284.300781 797.722656 1285.511719 C 804.722656 1286.21875 812.839844 1292.570312 828.527344 1305.941406 C 836.480469 1312.710938 843.199219 1319.230469 849.792969 1327.269531 C 858.269531 1337.589844 860.597656 1343.890625 861.363281 1347.871094 C 861.546875 1348.828125 861.664062 1349.390625 861.675781 1350.03125 C 861.886719 1359.589844 846.921875 1366.488281 844.507812 1367.601562 Z M 725.632812 1309.039062 C 718.265625 1318.988281 712.859375 1322.539062 709.183594 1324.121094 C 708.597656 1324.371094 707.863281 1324.710938 706.933594 1324.949219 C 702.066406 1326.210938 697.625 1324.039062 695.605469 1323.019531 C 690.902344 1320.648438 688.304688 1317.429688 684.238281 1312.269531 C 682.058594 1309.511719 679.230469 1305.570312 676.421875 1300.449219 C 676.421875 1300.449219 662.632812 1276.949219 658.433594 1248.128906 C 658.074219 1245.660156 657.804688 1243.179688 657.804688 1243.179688 C 657.570312 1241.859375 657.328125 1240.019531 657.320312 1237.808594 C 657.308594 1235.328125 657.328125 1231.421875 659.1875 1226.988281 C 659.808594 1225.511719 662.617188 1219.421875 668.980469 1215.78125 C 671.457031 1214.359375 679.863281 1210.179688 709.445312 1222.929688 C 735.027344 1233.941406 747.816406 1239.449219 750.421875 1251.171875 C 751.933594 1257.949219 748.210938 1266.941406 739.96875 1284.53125 C 735.804688 1293.449219 731.492188 1301.148438 725.632812 1309.039062 Z M 683.988281 1152.878906 C 685.089844 1151 686.175781 1149.75 686.722656 1149.128906 C 705.953125 1127.269531 728.570312 1112.378906 728.570312 1112.378906 C 743.546875 1102.53125 749.4375 1100.738281 755.550781 1100.851562 C 758.34375 1100.890625 763.195312 1101.039062 767.605469 1104.148438 C 769.964844 1105.808594 774.21875 1109.75 776.875 1126.929688 C 778.375 1136.628906 778.574219 1145.441406 778.074219 1155.238281 C 777.074219 1174.429688 776.574219 1184.019531 771.46875 1189.539062 C 762.78125 1198.949219 747.515625 1197.820312 741.632812 1197.070312 C 728.28125 1193.96875 714.933594 1190.890625 701.585938 1187.808594 C 700.054688 1187.769531 689.9375 1187.351562 683.957031 1179.378906 C 677.433594 1170.691406 680.382812 1159.058594 683.988281 1152.878906 Z M 815.699219 1105.25 C 820.539062 1100.390625 826.632812 1099.140625 828.292969 1098.871094 C 833.441406 1098.03125 837.519531 1099.171875 840.003906 1099.890625 C 842.140625 1100.511719 843.855469 1101.261719 845.0625 1101.859375 C 845.0625 1101.859375 847.375 1102.808594 849.664062 1103.851562 C 876.386719 1116.011719 895.457031 1136.148438 895.457031 1136.148438 C 899.953125 1140.21875 902.929688 1144.199219 904.824219 1147.128906 C 907.863281 1151.839844 915.917969 1164.300781 911.140625 1173.03125 C 910.75 1173.75 910.398438 1174.199219 909.691406 1175.089844 C 907.1875 1178.269531 902.34375 1182.570312 890.921875 1187.03125 C 881.78125 1190.601562 873.222656 1192.710938 863.539062 1194.351562 C 844.410156 1197.570312 834.769531 1198.730469 828.617188 1195.351562 C 817.992188 1189.519531 816.003906 1175.378906 812.050781 1147.121094 C 807.46875 1114.410156 813.675781 1107.289062 815.699219 1105.25 Z M 944.492188 1210.890625 C 933.023438 1128.460938 857.0625 1070.921875 774.804688 1082.359375 C 692.5625 1093.800781 635.1875 1169.910156 646.652344 1252.328125 C 658.121094 1334.761719 734.097656 1392.308594 816.339844 1380.871094 C 898.582031 1369.429688 955.96875 1293.320312 944.492188 1210.890625 "/>
<path fill-rule="nonzero" fill="rgb(6.596375%, 6.135559%, 5.406189%)" fill-opacity="1" d="M 826.167969 1233.648438 C 826.167969 1248.96875 813.75 1261.398438 798.429688 1261.398438 C 783.105469 1261.398438 770.6875 1248.96875 770.6875 1233.648438 C 770.6875 1218.328125 783.105469 1205.910156 798.429688 1205.910156 C 813.75 1205.910156 826.167969 1218.328125 826.167969 1233.648438 "/>
<path fill-rule="nonzero" fill="rgb(97.972107%, 73.019409%, 3.726196%)" fill-opacity="1" d="M 798.429688 1246.28125 C 791.46875 1246.28125 785.804688 1240.609375 785.804688 1233.648438 C 785.804688 1226.691406 791.46875 1221.03125 798.429688 1221.03125 C 805.390625 1221.03125 811.054688 1226.691406 811.054688 1233.648438 C 811.054688 1240.609375 805.390625 1246.28125 798.429688 1246.28125 "/>
<path fill-rule="nonzero" fill="rgb(8.966064%, 8.473206%, 7.852173%)" fill-opacity="1" d="M 2142.558594 1421.539062 C 2247.480469 1421.539062 2332.851562 1337.03125 2332.851562 1233.160156 C 2332.851562 1129.289062 2247.480469 1044.78125 2142.558594 1044.78125 C 2037.628906 1044.78125 1952.269531 1129.289062 1952.269531 1233.160156 C 1952.269531 1337.03125 2037.628906 1421.539062 2142.558594 1421.539062 "/>
<path fill-rule="nonzero" fill="rgb(56.829834%, 58.34198%, 59.420776%)" fill-opacity="1" d="M 1993.488281 1232.289062 C 1993.488281 1315.148438 2060.660156 1382.320312 2143.511719 1382.320312 C 2226.371094 1382.320312 2293.539062 1315.148438 2293.539062 1232.289062 C 2293.539062 1149.429688 2226.371094 1082.261719 2143.511719 1082.261719 C 2060.660156 1082.261719 1993.488281 1149.429688 1993.488281 1232.289062 "/>
<path fill-rule="nonzero" fill="rgb(6.596375%, 6.135559%, 5.406189%)" fill-opacity="1" d="M 2017.699219 1229.730469 C 2017.699219 1268.429688 2036.140625 1302.808594 2064.71875 1324.570312 C 2084.75 1339.820312 2109.738281 1348.878906 2136.851562 1348.878906 C 2202.648438 1348.878906 2255.988281 1295.53125 2255.988281 1229.730469 C 2255.988281 1163.929688 2202.648438 1110.578125 2136.851562 1110.578125 C 2102.078125 1110.578125 2070.808594 1125.480469 2049.03125 1149.21875 C 2029.570312 1170.429688 2017.699219 1198.679688 2017.699219 1229.730469 "/>
<path fill-rule="nonzero" fill="rgb(28.819275%, 29.037476%, 29.568481%)" fill-opacity="1" d="M 2247.351562 1185.121094 C 2247.351562 1185.121094 2255.558594 1171.199219 2247.351562 1157.238281 C 2239.148438 1143.289062 2199.28125 1108.410156 2179.351562 1109.570312 C 2159.410156 1110.730469 2156.75 1108.410156 2156.75 1108.410156 L 2156.75 1088.140625 C 2156.75 1088.140625 2232.828125 1104.140625 2243.46875 1122.050781 C 2254.101562 1139.96875 2264.058594 1147.609375 2266.390625 1152.261719 C 2268.710938 1156.910156 2274.699219 1169.871094 2274.699219 1174.851562 C 2274.699219 1179.828125 2274.699219 1183.089844 2272.039062 1185.121094 C 2269.378906 1187.140625 2261.738281 1190.800781 2258.421875 1191.128906 C 2255.089844 1191.460938 2247.351562 1185.121094 2247.351562 1185.121094 "/>
<path fill-rule="nonzero" fill="rgb(28.819275%, 29.037476%, 29.568481%)" fill-opacity="1" d="M 2021.601562 1227.230469 C 2021.601562 1285.308594 2068.679688 1332.398438 2126.769531 1332.398438 C 2184.859375 1332.398438 2231.949219 1285.308594 2231.949219 1227.230469 C 2231.949219 1169.140625 2184.859375 1122.050781 2126.769531 1122.050781 C 2068.679688 1122.050781 2021.601562 1169.140625 2021.601562 1227.230469 "/>
<path fill-rule="nonzero" fill="rgb(28.819275%, 29.037476%, 29.568481%)" fill-opacity="1" d="M 2126.378906 1111.039062 C 2122.179688 1108.679688 2114.691406 1105.28125 2105.179688 1105.421875 C 2101.960938 1105.460938 2095.800781 1105.949219 2083.25 1112.140625 C 2077.730469 1114.871094 2063.640625 1122.261719 2047.371094 1138.058594 C 2030.070312 1154.859375 2028.988281 1163 2028.808594 1166.210938 C 2028.558594 1170.53125 2029.449219 1174.128906 2030.238281 1176.480469 C 2024.238281 1176.480469 2018.238281 1176.480469 2012.238281 1176.480469 C 2012.238281 1176.480469 2037.648438 1121.730469 2058.078125 1110.578125 C 2078.519531 1099.441406 2096.960938 1094.949219 2096.960938 1094.949219 L 2126.769531 1091.960938 C 2126.640625 1098.320312 2126.511719 1104.679688 2126.378906 1111.039062 "/>
<path fill-rule="nonzero" fill="rgb(28.819275%, 29.037476%, 29.568481%)" fill-opacity="1" d="M 2259.648438 1214.039062 C 2262.539062 1216.078125 2267.109375 1219.898438 2270.53125 1226.140625 C 2272.269531 1229.320312 2273.269531 1232.308594 2273.859375 1234.730469 C 2272.46875 1259.339844 2266.039062 1277.558594 2261.050781 1288.699219 C 2252.988281 1306.738281 2246.050781 1312.210938 2241.46875 1314.96875 C 2231.75 1320.820312 2221.640625 1321.050781 2216.058594 1320.699219 C 2225.300781 1324.601562 2234.550781 1328.5 2243.800781 1332.398438 L 2274.699219 1296.78125 C 2274.699219 1296.78125 2284.328125 1270.859375 2284.988281 1264.21875 C 2285.660156 1257.570312 2289.648438 1244.949219 2289.648438 1236.980469 C 2289.648438 1229 2290.308594 1216.230469 2285.660156 1213.980469 C 2283.460938 1212.910156 2279.679688 1205.761719 2272.371094 1205.910156 C 2264.539062 1206.078125 2260.011719 1213.441406 2259.648438 1214.039062 "/>
<path fill-rule="nonzero" fill="rgb(52.122498%, 29.634094%, 10.847473%)" fill-opacity="1" d="M 2017.699219 1229.730469 C 2017.699219 1268.429688 2036.140625 1302.808594 2064.71875 1324.570312 C 2071.859375 1319.320312 2073.539062 1297.78125 2073.539062 1297.78125 C 2073.539062 1297.78125 2073.761719 1296.230469 2074 1293.960938 C 2074.570312 1288.609375 2075.28125 1279.21875 2073.539062 1276.589844 C 2044.628906 1245.949219 2069.050781 1204.089844 2069.5 1197.390625 C 2069.828125 1192.570312 2061.410156 1172.269531 2056.140625 1161.140625 C 2054.101562 1156.820312 2052.53125 1153.890625 2052.109375 1153.75 C 2052.109375 1153.75 2050.578125 1151.488281 2049.03125 1149.21875 C 2029.570312 1170.429688 2017.699219 1198.679688 2017.699219 1229.730469 "/>
<path fill-rule="nonzero" fill="rgb(28.819275%, 29.037476%, 29.568481%)" fill-opacity="1" d="M 2008 1216.539062 C 2005.429688 1232.550781 2003.878906 1258.488281 2014.898438 1285.421875 C 2019.769531 1297.351562 2028.429688 1318.511719 2046.789062 1323.351562 C 2049.761719 1324.140625 2052.328125 1324.320312 2054.101562 1324.351562 C 2052.101562 1328.449219 2050.109375 1332.550781 2048.121094 1336.640625 L 2027.851562 1324.679688 L 2011.238281 1300.101562 L 1998.71875 1265.550781 L 1993.570312 1227.230469 L 1998.71875 1219.699219 C 2001.820312 1218.648438 2004.910156 1217.601562 2008 1216.539062 "/>
<path fill-rule="nonzero" fill="rgb(67.514038%, 48.060608%, 11.398315%)" fill-opacity="1" d="M 2033.671875 1256.160156 C 2036.671875 1266.601562 2042.789062 1267.421875 2048.910156 1283.378906 C 2051.980469 1291.398438 2052.25 1295.910156 2056.339844 1298.019531 C 2061.488281 1300.691406 2068.570312 1297.398438 2074 1293.960938 C 2074.570312 1288.609375 2075.28125 1279.21875 2073.539062 1276.589844 C 2044.628906 1245.949219 2069.050781 1204.089844 2069.5 1197.390625 C 2069.828125 1192.570312 2061.410156 1172.269531 2056.140625 1161.140625 C 2044.761719 1164.578125 2037 1181.820312 2037 1181.820312 L 2037.148438 1227.230469 C 2031.179688 1240.820312 2031.949219 1250.191406 2033.671875 1256.160156 "/>
<path fill-rule="nonzero" fill="rgb(6.596375%, 6.135559%, 5.406189%)" fill-opacity="1" d="M 2185.910156 1327.179688 C 2184.109375 1324.878906 2181.710938 1321.890625 2178.878906 1318.609375 C 2182.398438 1316.601562 2185.800781 1314.378906 2189.050781 1311.988281 C 2189.53125 1318.679688 2187.171875 1324.5 2185.910156 1327.179688 "/>
<path fill-rule="nonzero" fill="rgb(20.243835%, 20.19043%, 20.014954%)" fill-opacity="1" d="M 2096.621094 1319.679688 C 2102.738281 1307.621094 2108.851562 1295.558594 2114.96875 1283.5 C 2114.96875 1283.5 2138.910156 1276.359375 2145.679688 1276.359375 C 2146.378906 1276.359375 2146.898438 1276.429688 2147.191406 1276.601562 C 2150.28125 1278.390625 2166.21875 1284.441406 2172.199219 1289.589844 C 2180.941406 1297.109375 2185.910156 1300.089844 2187.988281 1306.480469 C 2188.589844 1308.351562 2188.921875 1310.199219 2189.050781 1311.988281 C 2185.800781 1314.378906 2182.398438 1316.601562 2178.878906 1318.609375 C 2168.558594 1306.671875 2152.511719 1290.878906 2139.199219 1290.878906 C 2137.53125 1290.878906 2135.898438 1291.128906 2134.328125 1291.671875 C 2131.480469 1292.648438 2126.25 1296.589844 2115.890625 1304.441406 C 2107.730469 1310.628906 2101.140625 1315.949219 2096.621094 1319.679688 "/>
<path fill-rule="nonzero" fill="rgb(20.243835%, 20.19043%, 20.014954%)" fill-opacity="1" d="M 2083.429688 1299.050781 C 2080.160156 1299.050781 2077.230469 1293.429688 2077.230469 1293.429688 C 2077.230469 1293.429688 2084.5 1262.890625 2085.488281 1254.921875 C 2086.488281 1246.941406 2060.878906 1227.230469 2060.878906 1227.230469 L 2081.511719 1219.039062 L 2068.828125 1193.160156 C 2068.851562 1193.160156 2069.390625 1193.171875 2070.328125 1193.171875 C 2076.539062 1193.171875 2100.148438 1192.820312 2107.921875 1187.640625 C 2116.890625 1181.660156 2126.691406 1147.121094 2126.691406 1147.121094 C 2126.691406 1147.121094 2137.320312 1158.238281 2140.308594 1161.140625 C 2143.300781 1164.039062 2140.308594 1183.160156 2142.871094 1186.148438 C 2145.421875 1189.140625 2117.878906 1276.339844 2117.878906 1276.589844 C 2117.878906 1276.839844 2087.488281 1298.269531 2084 1298.988281 C 2083.808594 1299.03125 2083.621094 1299.050781 2083.429688 1299.050781 "/>
<path fill-rule="nonzero" fill="rgb(28.819275%, 29.037476%, 29.568481%)" fill-opacity="1" d="M 2189.460938 1334.359375 C 2188.820312 1339.828125 2186.800781 1349.691406 2179.179688 1357.570312 C 2171.179688 1365.851562 2161.589844 1367.128906 2143.550781 1369.289062 C 2143.550781 1369.289062 2107.019531 1373.640625 2087.980469 1361.480469 C 2082.789062 1358.160156 2080.261719 1353.671875 2080.261719 1353.671875 C 2078.570312 1350.671875 2078 1347.839844 2077.78125 1346.128906 C 2076.371094 1351.191406 2074.949219 1356.25 2073.53125 1361.308594 C 2094.980469 1372.28125 2113.929688 1376.609375 2126.769531 1378.5 C 2136.550781 1379.949219 2180.710938 1388.609375 2193.261719 1368.539062 C 2195.128906 1365.550781 2201.109375 1362.988281 2201.109375 1355.050781 C 2201.109375 1350.511719 2206.199219 1340.210938 2201.109375 1335.648438 C 2197.621094 1332.53125 2191.78125 1333.738281 2189.460938 1334.359375 "/>
<path fill-rule="nonzero" fill="rgb(56.829834%, 58.34198%, 59.420776%)" fill-opacity="1" d="M 1999.480469 1243.25 C 1999.480469 1243.25 1999.75 1245.730469 2000.109375 1248.199219 C 2004.308594 1277.019531 2018.101562 1300.519531 2018.101562 1300.519531 C 2020.871094 1305.648438 2023.710938 1309.578125 2025.910156 1312.328125 C 2034.339844 1322.851562 2041.640625 1326.359375 2044.46875 1325.96875 C 2046.488281 1325.699219 2048.609375 1325.019531 2048.609375 1325.019531 C 2052.179688 1323.878906 2058.261719 1321.308594 2067.308594 1309.109375 C 2073.171875 1301.21875 2077.480469 1293.511719 2081.648438 1284.601562 C 2089.898438 1267.011719 2093.609375 1258.019531 2092.101562 1251.238281 C 2089.488281 1239.511719 2076.699219 1234.011719 2051.121094 1223 C 2021.539062 1210.25 2013.128906 1214.421875 2010.671875 1215.851562 C 2010.671875 1215.851562 2008.96875 1216.808594 2007.421875 1218.179688 C 2006.371094 1219.121094 1999.101562 1226.410156 1999 1237.878906 C 1998.988281 1239.179688 1999.058594 1241.03125 1999.480469 1243.25 Z M 2094.230469 1367.601562 C 2097 1368.878906 2101.488281 1370.578125 2107.5 1371.300781 C 2111.21875 1371.949219 2117.03125 1372.851562 2124.179688 1373.519531 C 2152.769531 1376.191406 2167.550781 1371.761719 2173.269531 1369.730469 C 2174.089844 1369.441406 2182.148438 1366.5 2187.128906 1361.03125 C 2191.109375 1356.671875 2192.640625 1351.710938 2192.640625 1351.710938 C 2193.550781 1348.921875 2195.929688 1339.628906 2177.300781 1315.53125 C 2161.191406 1294.710938 2153.128906 1284.300781 2141.011719 1285.511719 C 2134.011719 1286.21875 2125.898438 1292.570312 2110.210938 1305.941406 C 2102.261719 1312.710938 2095.539062 1319.230469 2088.949219 1327.269531 C 2080.46875 1337.589844 2078.140625 1343.890625 2077.371094 1347.871094 C 2077.191406 1348.828125 2077.078125 1349.390625 2077.058594 1350.03125 C 2076.851562 1359.589844 2091.808594 1366.488281 2094.230469 1367.601562 Z M 2213.109375 1309.039062 C 2220.46875 1318.988281 2225.878906 1322.539062 2229.558594 1324.121094 C 2230.140625 1324.371094 2230.871094 1324.710938 2231.800781 1324.949219 C 2236.671875 1326.210938 2241.109375 1324.039062 2243.128906 1323.019531 C 2247.828125 1320.648438 2250.429688 1317.429688 2254.5 1312.269531 C 2256.679688 1309.511719 2259.511719 1305.570312 2262.320312 1300.449219 C 2262.320312 1300.449219 2276.109375 1276.949219 2280.300781 1248.128906 C 2280.671875 1245.660156 2280.929688 1243.179688 2280.929688 1243.179688 C 2281.171875 1241.859375 2281.410156 1240.019531 2281.421875 1237.808594 C 2281.429688 1235.328125 2281.410156 1231.421875 2279.550781 1226.988281 C 2278.929688 1225.511719 2276.121094 1219.421875 2269.761719 1215.78125 C 2267.28125 1214.359375 2258.871094 1210.179688 2229.289062 1222.929688 C 2203.710938 1233.941406 2190.921875 1239.449219 2188.320312 1251.171875 C 2186.800781 1257.949219 2190.53125 1266.941406 2198.769531 1284.53125 C 2202.929688 1293.449219 2207.25 1301.148438 2213.109375 1309.039062 Z M 2254.75 1152.878906 C 2253.648438 1151 2252.558594 1149.75 2252.011719 1149.128906 C 2232.789062 1127.269531 2210.171875 1112.378906 2210.171875 1112.378906 C 2195.191406 1102.53125 2189.300781 1100.738281 2183.191406 1100.851562 C 2180.398438 1100.890625 2175.539062 1101.039062 2171.128906 1104.148438 C 2168.769531 1105.808594 2164.519531 1109.75 2161.859375 1126.929688 C 2160.359375 1136.628906 2160.171875 1145.441406 2160.671875 1155.238281 C 2161.671875 1174.429688 2162.171875 1184.019531 2167.269531 1189.539062 C 2175.960938 1198.949219 2191.21875 1197.820312 2197.109375 1197.070312 C 2210.460938 1193.96875 2223.800781 1190.890625 2237.148438 1187.808594 C 2238.679688 1187.769531 2248.800781 1187.351562 2254.78125 1179.378906 C 2261.300781 1170.691406 2258.359375 1159.058594 2254.75 1152.878906 Z M 2123.039062 1105.25 C 2118.199219 1100.390625 2112.109375 1099.140625 2110.449219 1098.871094 C 2105.289062 1098.03125 2101.21875 1099.171875 2098.730469 1099.890625 C 2096.601562 1100.511719 2094.878906 1101.261719 2093.679688 1101.859375 C 2093.679688 1101.859375 2091.359375 1102.808594 2089.070312 1103.851562 C 2062.351562 1116.011719 2043.28125 1136.148438 2043.28125 1136.148438 C 2038.78125 1140.21875 2035.808594 1144.199219 2033.921875 1147.128906 C 2030.871094 1151.839844 2022.820312 1164.300781 2027.601562 1173.03125 C 2027.988281 1173.75 2028.339844 1174.199219 2029.039062 1175.089844 C 2031.550781 1178.269531 2036.390625 1182.570312 2047.820312 1187.03125 C 2056.960938 1190.601562 2065.511719 1192.710938 2075.199219 1194.351562 C 2094.328125 1197.570312 2103.96875 1198.730469 2110.121094 1195.351562 C 2120.75 1189.519531 2122.738281 1175.378906 2126.691406 1147.121094 C 2131.269531 1114.410156 2125.058594 1107.289062 2123.039062 1105.25 Z M 1994.25 1210.890625 C 2005.710938 1128.460938 2081.679688 1070.921875 2163.929688 1082.359375 C 2246.179688 1093.800781 2303.550781 1169.910156 2292.078125 1252.328125 C 2280.621094 1334.761719 2204.640625 1392.308594 2122.398438 1380.871094 C 2040.148438 1369.429688 1982.769531 1293.320312 1994.25 1210.890625 "/>
<path fill-rule="nonzero" fill="rgb(6.596375%, 6.135559%, 5.406189%)" fill-opacity="1" d="M 2112.570312 1233.648438 C 2112.570312 1248.96875 2124.988281 1261.398438 2140.308594 1261.398438 C 2155.628906 1261.398438 2168.050781 1248.96875 2168.050781 1233.648438 C 2168.050781 1218.328125 2155.628906 1205.910156 2140.308594 1205.910156 C 2124.988281 1205.910156 2112.570312 1218.328125 2112.570312 1233.648438 "/>
<path fill-rule="nonzero" fill="rgb(97.972107%, 73.019409%, 3.726196%)" fill-opacity="1" d="M 2140.308594 1246.28125 C 2147.269531 1246.28125 2152.929688 1240.609375 2152.929688 1233.648438 C 2152.929688 1226.691406 2147.269531 1221.03125 2140.308594 1221.03125 C 2133.351562 1221.03125 2127.691406 1226.691406 2127.691406 1233.648438 C 2127.691406 1240.609375 2133.351562 1246.28125 2140.308594 1246.28125 "/>
<path fill-rule="nonzero" fill="rgb(12.860107%, 11.213684%, 11.195374%)" fill-opacity="1" d="M 1805.570312 791.300781 L 1749.75 942.960938 L 1809.550781 942.960938 L 1857.390625 801.429688 L 1805.570312 791.300781 "/>
</svg>
