<?xml version="1.0" ?>
<svg xmlns="http://www.w3.org/2000/svg" xmlns:ev="http://www.w3.org/2001/xml-events" xmlns:xlink="http://www.w3.org/1999/xlink" baseProfile="full" height="451.41205mm" id="svg5" version="1.1" viewBox="0 0 455.42145 451.41205" width="455.42145mm" xml:space="preserve">
	<defs/>
	<path d="M 221.746,451.258 C 189.701,450.362 155.796,441.903 127.507,427.745 C 109.7,418.832 93.367,407.961 78.166,394.903 C 72.649,390.165 60.921,378.313 55.798,372.299 C 25.227,336.417 5.639,291.013 1.096,245.506 C -0.753,226.99 -0.251,207.036 2.512,189.208 C 7.425,157.505 18.787,128.732 37.341,101.013 C 45.733,88.476 55.128,77.3 67.81,64.772 C 80.389,52.345 91.718,43.522 108.458,33.119 C 134.169,17.141 165.069,6.08 194.759,2.229 C 222.889,-1.421 248.87,-0.594 273.957,4.748 C 307.461,11.882 335.771,24.562 363.887,45.029 C 386.233,61.295 405.365,82.119 421.48,107.716 C 439.803,136.818 450.959,168.565 454.395,201.378 C 456.326,219.824 455.489,243.333 452.247,261.703 C 445.899,297.67 432.462,329.924 411.905,358.541 C 403.204,370.654 394.195,380.861 382.71,391.621 C 372.857,400.851 366.574,405.925 356.507,412.778 C 324.994,434.23 291.481,446.589 254.907,450.245 C 251.9,450.545 245.55,450.949 240.796,451.141 C 232.667,451.47 229.948,451.487 221.746,451.258 L 221.746,451.258 M 248.91,446.385 C 275.001,444.134 297.631,438.334 319.113,428.392 C 339.19,419.099 356.139,408.109 372.382,393.852 C 377.399,389.448 387.241,379.846 390.134,376.533 C 391.337,375.155 389.8,376.513 386.658,379.594 C 377.629,388.461 370.916,394.171 360.388,401.94 C 350.678,409.104 342.681,414.044 331.107,420.025 C 306.898,432.537 283.35,439.666 255.789,442.829 C 250.872,443.393 236.163,444.086 229.08,444.088 C 216.853,444.088 201.695,442.976 190.694,441.266 C 169.386,437.954 145.707,430.402 126.364,420.748 C 120.732,417.937 118.548,417.191 122.685,419.491 C 132.589,424.997 146.368,431.142 156.889,434.746 C 178.356,442.099 196.332,445.484 222.275,447.057 C 226.541,447.316 242.908,446.903 248.91,446.385 L 248.91,446.385 M 277.485,420.961 C 298.732,414.803 322.305,403.704 341.514,390.814 C 355.94,381.134 371.761,366.33 383.359,351.662 C 403.597,326.065 417.222,297.971 423.39,269.116 C 424.472,264.056 424.42,260.863 423.195,257.322 C 421.866,253.476 418.985,249.925 416.275,248.793 C 414.203,247.927 413.884,248.123 414.891,249.644 C 417.621,253.77 418.087,259.738 416.339,268.23 C 410.811,295.099 398.625,321.786 381.225,345.135 C 371.076,358.754 357.447,372.631 344.025,383.014 C 326.156,396.837 303.415,408.876 280.168,416.82 C 274.778,418.661 274.363,418.749 272.093,418.526 C 266.777,418.005 262.406,415.936 259.005,412.331 C 256.424,409.595 255.419,407.381 254.9,403.289 C 254.457,399.795 254.547,399.14 260.016,366.126 C 263.08,347.626 265.166,334.285 265.049,333.934 C 264.916,333.535 264.585,335.341 260.538,358.541 C 258.981,367.466 257.246,377.229 256.683,380.237 C 256.119,383.244 255.409,387.133 255.104,388.88 C 254.8,390.626 254.154,394.301 253.67,397.046 C 252.655,402.805 252.591,404.924 253.337,408.087 C 254.223,411.848 255.829,414.707 258.597,417.455 C 263.892,422.71 268.5,423.566 277.485,420.961 L 277.485,420.961 M 193.548,421.657 C 200.385,419.658 205.477,412.154 206.098,403.167 C 206.248,401.0 205.927,398.447 204.327,389.056 C 203.252,382.75 202.264,377.035 202.131,376.356 C 201.998,375.677 201.984,375.207 202.101,375.311 C 202.354,375.538 205.088,388.857 206.404,396.269 C 206.982,399.526 207.296,402.415 207.224,403.825 C 207.088,406.468 207.529,406.92 208.674,405.312 C 210.205,403.163 210.287,401.293 209.262,392.055 C 207.262,374.037 204.252,357.518 199.17,336.669 C 198.413,333.564 197.292,328.802 196.677,326.085 C 195.133,319.256 194.321,316.737 193.663,316.737 C 193.313,316.737 193.191,316.953 193.315,317.354 C 193.872,319.164 197.765,347.681 197.71,349.545 C 197.67,350.831 197.64,350.632 196.51,342.666 C 195.973,338.867 193.559,323.497 192.754,318.749 C 192.531,317.431 192.191,316.255 191.999,316.137 C 191.779,316.001 191.74,316.363 191.893,317.123 C 192.027,317.784 192.612,322.442 193.194,327.476 C 195.537,347.734 197.85,362.559 201.811,382.706 C 205.322,400.564 205.326,400.592 204.881,403.193 C 204.063,407.974 202.303,411.027 198.569,414.138 C 194.947,417.157 188.387,419.356 184.547,418.839 C 183.587,418.71 180.174,417.732 176.962,416.666 C 152.298,408.482 129.068,395.755 109.387,379.643 C 93.88,366.947 77.85,348.829 66.528,331.201 C 56.342,315.34 48.5,297.853 43.229,279.244 C 39.421,265.798 39.083,259.271 41.888,253.32 C 43.035,250.887 45.676,247.983 48.23,246.348 C 49.13,245.771 50.162,245.109 50.523,244.876 C 51.557,244.211 50.503,243.723 48.004,243.717 C 43.628,243.707 39.694,246.671 37.152,251.895 C 34.535,257.27 34.177,262.062 35.814,269.784 C 42.273,300.257 57.163,331.47 76.366,354.793 C 81.275,360.756 95.462,374.879 101.803,380.117 C 123.922,398.388 147.899,411.063 177.121,419.933 C 184.826,422.272 189.697,422.783 193.549,421.657 L 193.548,421.657 M 201.693,374.239 C 201.693,373.754 201.773,373.556 201.871,373.798 C 201.971,374.041 201.971,374.438 201.871,374.68 C 201.771,374.923 201.693,374.73 201.693,374.239 L 201.693,374.239 M 201.341,372.476 C 201.341,371.99 201.421,371.792 201.519,372.035 C 201.619,372.277 201.619,372.674 201.519,372.917 C 201.419,373.159 201.341,372.957 201.341,372.476 L 201.341,372.476 M 197.826,351.838 C 197.826,351.256 197.916,351.061 198.002,351.404 C 198.092,351.747 198.082,352.223 197.992,352.462 C 197.892,352.701 197.822,352.422 197.829,351.838 L 197.826,351.838 M 194.682,410.451 C 197.096,409.437 200.125,405.066 200.76,401.68 C 200.888,400.998 200.74,399.14 200.429,397.489 C 200.12,395.859 198.829,388.571 197.56,381.295 C 193.053,355.458 187.74,327.775 185.77,319.855 C 184.969,316.639 182.854,312.291 180.865,309.775 C 180.075,308.776 177.401,306.335 174.923,304.351 C 167.75,298.609 161.974,292.57 155.957,284.525 C 147.718,273.506 144.28,270.266 139.252,268.782 C 136.804,268.059 120.32,264.125 113.387,262.609 C 111.187,262.128 106.608,261.104 103.213,260.333 C 99.817,259.563 94.737,258.451 91.924,257.862 C 89.11,257.273 85.3,256.465 83.457,256.066 C 81.614,255.668 77.566,254.865 74.461,254.282 C 71.357,253.699 66.674,252.802 64.054,252.288 C 57.719,251.045 51.551,250.928 50.081,252.024 C 48.038,253.546 47.647,254.452 47.684,257.584 C 47.764,264.115 52.351,280.926 57.94,295.145 C 72.318,331.723 96.86,362.278 129.318,384.011 C 146.59,395.576 167.147,404.836 185.467,409.304 C 189.919,410.39 191.207,410.655 193.094,410.875 C 193.343,410.905 194.057,410.714 194.682,410.451 L 194.682,410.451 M 273.191,409.32 C 294.053,403.875 317.963,392.053 336.575,377.98 C 360.536,359.862 381.115,334.384 393.736,307.212 C 399.327,295.174 402.446,286.223 406.521,270.523 C 408.621,262.432 408.858,261.172 408.875,257.999 C 408.895,253.92 408.351,252.389 406.32,250.84 C 403.835,248.944 399.469,249.386 377.497,253.754 C 366.452,255.951 358.073,257.82 341.867,261.706 C 318.831,267.229 314.305,268.482 310.869,270.285 C 307.142,272.24 305.665,273.986 296.648,287.088 C 293.192,292.11 290.011,295.813 283.148,302.802 C 275.279,310.815 273.335,313.805 271.675,320.441 C 271.202,322.331 265.607,355.265 263.764,367.008 C 263.368,369.53 261.994,378.023 260.71,385.881 C 258.152,401.533 258.098,402.57 259.67,405.708 C 260.836,408.034 261.377,408.653 263.374,409.948 C 265.305,411.201 266.204,411.143 273.191,409.32 L 273.191,409.32 M 240.576,402.753 L 243.001,402.285 L 243.644,400.169 C 244.281,398.069 245.423,392.156 248.208,376.533 C 250.236,365.155 251.126,360.411 253.506,348.31 C 255.403,338.659 258.435,322.549 258.435,322.116 C 258.435,322.016 257.672,322.036 256.738,322.166 C 252.334,322.751 239.542,323.438 233.017,323.44 C 223.808,323.44 217.935,322.991 209.801,321.65 C 206.239,321.062 203.235,320.67 203.126,320.779 C 202.923,320.982 203.066,321.821 206.598,341.435 C 209.734,358.84 213.6,383.886 215.584,399.643 C 215.718,400.711 215.978,401.769 216.161,401.996 C 216.344,402.223 217.636,402.594 219.032,402.822 C 220.428,403.049 221.808,403.29 222.099,403.357 C 223.43,403.665 238.387,403.18 240.576,402.757 L 240.576,402.753 M 226.156,399.488 C 225.962,399.408 224.284,399.234 222.427,399.108 C 220.57,398.981 218.847,398.751 218.597,398.597 C 218.299,398.413 217.263,392.193 215.563,380.369 C 212.464,358.828 207.066,326.633 206.36,325.491 C 206.097,325.066 206.235,325.078 212.686,326.06 C 219.246,327.058 227.811,327.427 238.856,327.187 C 244.677,327.06 250.617,326.801 252.058,326.611 C 253.498,326.421 254.733,326.322 254.802,326.391 C 254.872,326.461 254.772,326.915 254.591,327.401 C 254.19,328.456 251.871,341.627 248.922,359.599 C 247.744,366.778 246.472,374.398 246.095,376.533 C 245.718,378.667 245.086,382.636 244.69,385.352 C 244.295,388.068 243.601,392.188 243.148,394.506 C 242.352,398.589 242.294,398.731 241.297,399.014 C 240.207,399.324 226.757,399.744 226.156,399.488 L 226.156,399.488 M 242.452,391.268 C 242.362,390.924 242.283,391.12 242.276,391.702 C 242.276,392.284 242.346,392.565 242.439,392.326 C 242.539,392.087 242.541,391.611 242.449,391.268 L 242.452,391.268 M 236.409,391.085 L 237.445,389.938 L 236.298,390.974 C 235.668,391.544 235.152,392.06 235.152,392.121 C 235.152,392.393 235.443,392.151 236.409,391.085 L 236.409,391.085 M 236.565,384.137 C 241.313,378.864 244.517,375.019 242.314,377.238 C 241.929,377.626 239.578,380.245 237.09,383.059 C 234.602,385.872 231.997,388.802 231.301,389.569 C 230.606,390.335 230.305,390.76 230.634,390.512 C 230.963,390.263 233.632,387.395 236.565,384.137 M 237.608,376.533 C 240.479,373.428 243.271,370.332 243.812,369.653 L 244.796,368.419 L 243.553,369.653 C 242.378,370.82 230.187,383.991 226.711,387.848 C 225.824,388.833 226.741,387.96 228.742,385.908 C 230.747,383.856 234.737,379.637 237.608,376.533 M 238.327,388.88 C 238.782,388.395 239.076,387.998 238.979,387.998 C 238.879,387.998 238.43,388.395 237.974,388.88 C 237.518,389.365 237.225,389.762 237.322,389.762 C 237.422,389.762 237.871,389.365 238.327,388.88 M 243.455,385.881 L 243.602,383.588 L 243.108,386.234 C 242.522,389.37 242.474,390.265 242.957,389.056 C 243.15,388.571 243.374,387.142 243.455,385.881 L 243.455,385.881 M 239.914,386.939 C 240.265,386.551 240.473,386.234 240.376,386.234 C 240.276,386.234 239.913,386.551 239.561,386.939 C 239.21,387.328 239.002,387.645 239.099,387.645 C 239.199,387.645 239.563,387.328 239.914,386.939 M 236.297,371.417 C 244.178,362.969 246.722,360.118 242.736,364.2 C 238.142,368.905 229.224,378.404 225.679,382.368 L 222.379,386.058 L 225.964,382.353 C 227.936,380.316 232.586,375.395 236.297,371.417 M 244.475,381.035 C 244.602,380.111 244.948,378.128 245.243,376.628 C 245.537,375.128 245.729,373.303 245.669,372.571 C 245.589,371.555 245.454,371.949 245.117,374.239 C 244.875,375.889 244.441,378.508 244.154,380.06 C 243.867,381.613 243.629,382.932 243.625,382.992 C 243.625,383.052 243.759,383.012 243.93,382.912 C 244.102,382.806 244.347,381.963 244.475,381.039 L 244.475,381.035 M 229.034,372.74 C 233.88,367.647 239.394,361.733 241.287,359.599 L 244.73,355.719 L 240.959,359.599 C 237.62,363.036 227.641,373.636 221.945,379.796 C 220.824,381.008 219.978,382.001 220.065,382.001 C 220.155,382.001 224.188,377.833 229.034,372.74 M 226.733,368.683 C 230.895,364.269 236.107,358.673 238.314,356.248 C 240.521,353.822 243.53,350.586 245.001,349.056 C 246.472,347.526 247.481,346.381 247.245,346.513 C 247.008,346.644 242.721,351.079 237.72,356.368 C 229.72,364.825 226.769,367.999 220.361,375.033 C 219.521,375.955 218.909,376.709 219.0,376.709 C 219.09,376.709 222.571,373.097 226.733,368.683 L 226.733,368.683 M 244.147,376.003 C 244.499,375.615 244.707,375.298 244.61,375.298 C 244.51,375.298 244.146,375.615 243.795,376.003 C 243.444,376.391 243.236,376.709 243.333,376.709 C 243.433,376.709 243.796,376.391 244.147,376.003 M 245.969,369.918 C 245.869,369.675 245.791,369.878 245.791,370.359 C 245.791,370.844 245.871,371.042 245.969,370.8 C 246.069,370.557 246.069,370.16 245.969,369.918 L 245.969,369.918 M 226.122,362.774 C 229.055,359.67 233.27,355.145 235.49,352.72 C 237.71,350.295 240.804,346.963 242.366,345.316 C 243.928,343.669 244.515,342.955 243.672,343.729 C 242.151,345.123 223.87,364.486 221.194,367.537 C 219.396,369.586 218.446,370.893 219.769,369.497 C 220.33,368.904 223.189,365.879 226.122,362.774 L 226.122,362.774 M 246.718,366.126 L 246.718,364.891 L 246.426,366.302 C 246.266,367.078 246.141,368.031 246.149,368.419 C 246.159,368.989 246.219,368.956 246.447,368.242 C 246.602,367.757 246.727,366.805 246.724,366.126 L 246.718,366.126 M 227.993,354.131 C 230.244,351.706 233.984,347.658 236.303,345.135 L 240.519,340.549 L 236.557,344.606 C 231.389,349.897 220.049,362.028 218.584,363.833 C 217.244,365.483 222.136,360.439 227.993,354.131 L 227.993,354.131 M 247.415,361.892 C 247.415,361.106 247.385,361.125 247.146,362.069 C 246.998,362.651 246.877,363.524 246.877,364.009 C 246.877,364.796 246.907,364.777 247.146,363.833 C 247.294,363.25 247.415,362.377 247.415,361.892 M 247.743,359.165 C 247.653,358.822 247.575,359.017 247.568,359.599 C 247.568,360.181 247.638,360.462 247.73,360.223 C 247.83,359.984 247.833,359.508 247.74,359.165 L 247.743,359.165 M 227.537,347.768 C 235.981,338.669 238.141,336.247 234.093,340.419 C 230.531,344.09 218.823,356.669 217.534,358.21 C 215.93,360.127 220.334,355.53 227.537,347.768 L 227.537,347.768 M 248.093,357.593 C 247.98,357.311 247.896,357.395 247.879,357.806 C 247.869,358.178 247.949,358.386 248.065,358.269 C 248.182,358.152 248.195,357.847 248.095,357.593 L 248.093,357.593 M 248.449,355.284 C 248.359,354.941 248.28,355.137 248.273,355.719 C 248.273,356.301 248.343,356.582 248.436,356.343 C 248.536,356.104 248.538,355.628 248.446,355.284 L 248.449,355.284 M 245.934,354.396 L 246.97,353.249 L 245.823,354.285 C 245.193,354.855 244.677,355.371 244.677,355.432 C 244.677,355.704 244.968,355.462 245.934,354.396 L 245.934,354.396 M 248.798,353.359 C 248.686,353.078 248.602,353.162 248.585,353.573 C 248.575,353.944 248.655,354.153 248.77,354.036 C 248.888,353.918 248.9,353.614 248.8,353.359 L 248.798,353.359 M 224.86,343.791 C 227.834,340.553 230.189,337.903 230.094,337.903 C 229.886,337.903 218.888,349.749 216.992,352.014 C 215.053,354.33 218.235,351.005 224.86,343.791 M 249.151,350.89 C 249.038,350.609 248.955,350.692 248.938,351.103 C 248.918,351.475 249.008,351.683 249.123,351.566 C 249.24,351.449 249.253,351.145 249.153,350.89 L 249.151,350.89 M 249.496,349.104 C 249.396,348.862 249.318,349.064 249.318,349.545 C 249.318,350.03 249.398,350.229 249.496,349.986 C 249.596,349.743 249.596,349.347 249.496,349.104 L 249.496,349.104 M 249.849,346.987 C 249.749,346.745 249.671,346.947 249.671,347.428 C 249.671,347.913 249.751,348.112 249.849,347.869 C 249.949,347.627 249.949,347.23 249.849,346.987 L 249.849,346.987 M 218.243,344.165 C 220.057,342.176 221.094,340.946 220.549,341.431 C 219.345,342.503 214.55,347.781 214.781,347.781 C 214.871,347.781 216.43,346.154 218.243,344.165 M 215.572,340.373 C 216.33,339.597 216.871,338.962 216.774,338.962 C 216.674,338.962 215.978,339.597 215.22,340.373 C 214.462,341.149 213.921,341.784 214.018,341.784 C 214.118,341.784 214.815,341.149 215.572,340.373 M 223.686,338.256 C 224.838,337.092 225.702,336.139 225.605,336.139 C 225.505,336.139 224.486,337.092 223.334,338.256 C 222.182,339.42 221.318,340.373 221.415,340.373 C 221.515,340.373 222.534,339.42 223.686,338.256 M 218.77,336.757 L 219.806,335.61 L 218.659,336.646 C 218.029,337.216 217.513,337.732 217.513,337.793 C 217.513,338.065 217.804,337.823 218.77,336.757 L 218.77,336.757 M 232.022,335.875 C 232.46,335.315 232.448,335.303 231.888,335.742 C 231.301,336.203 231.114,336.492 231.404,336.492 C 231.474,336.492 231.755,336.214 232.022,335.875 M 352.097,394.926 C 358.354,390.257 360.419,388.606 365.679,384.072 C 370.994,379.491 381.515,368.937 386.336,363.351 C 390.183,358.895 397.746,349.367 399.861,346.314 C 402.149,343.01 401.149,344.157 396.845,349.773 C 382.277,368.779 364.138,386.146 344.425,399.961 C 342.145,401.559 340.279,402.942 340.279,403.035 C 340.279,403.309 347.535,398.33 352.097,394.926 L 352.097,394.926 M 68.003,358.805 C 54.392,342.302 42.16,320.517 34.677,299.451 C 28.075,280.866 23.21,258.544 21.722,240.008 C 18.791,203.522 25.911,166.467 42.032,134.294 C 49.111,120.167 57.488,107.341 67.542,95.236 C 73.894,87.587 87.135,74.169 93.688,68.739 C 108.649,56.344 125.413,46.042 143.782,37.955 C 179.131,22.395 217.722,17.169 257.553,22.551 C 274.997,24.908 293.679,30.079 309.054,36.806 C 339.426,50.095 368.958,72.726 390.767,99.426 C 404.955,116.796 417.39,138.056 424.501,157.105 C 427.735,165.768 430.971,175.802 432.521,181.976 C 435.106,192.269 437.261,206.513 437.751,216.548 C 437.811,217.832 437.893,217.013 437.931,214.686 C 438.047,207.584 436.303,193.802 433.903,182.858 C 427.462,153.481 414.349,125.022 396.437,101.542 C 383.656,84.789 367.347,68.677 351.216,56.869 C 327.745,39.688 305.062,28.77 278.72,21.974 C 260.256,17.21 246.156,15.211 228.625,14.87 C 207.009,14.451 189.578,16.51 169.359,21.874 C 142.792,28.922 114.835,42.866 93.864,59.529 C 80.544,70.113 67.057,84.075 56.562,98.146 C 40.804,119.273 28.784,144.98 22.638,170.699 C 18.344,188.666 16.939,201.883 17.238,221.482 C 17.348,228.672 17.654,235.896 17.986,239.126 C 20.42,262.808 25.854,283.886 35.341,306.437 C 42.105,322.515 51.852,338.98 63.366,353.778 C 66.591,357.924 70.623,362.598 70.974,362.598 C 71.064,362.598 69.724,360.891 68.003,358.805 L 68.003,358.805 M 414.251,346.723 C 419.745,338.016 425.75,327.088 429.287,319.365 C 447.5,279.591 454.225,239.502 449.434,199.262 C 445.474,166.003 432.281,132.29 412.089,103.835 C 398.119,84.148 378.826,64.141 361.137,50.997 C 357.346,48.18 344.021,39.225 342.396,38.402 C 340.709,37.548 342.249,38.668 346.982,41.736 C 351.998,44.988 353.831,46.284 361.286,51.854 C 376.111,62.929 393.909,80.799 405.33,96.074 C 410.887,103.507 412.177,105.415 416.775,113.008 C 429.676,134.311 438.316,155.905 443.089,178.779 C 450.738,215.431 449.018,252.015 437.822,290.808 C 432.099,310.637 424.189,329.195 414.743,344.953 C 412.594,348.539 410.835,351.537 410.835,351.615 C 410.835,351.923 412.237,349.915 414.251,346.723 L 414.251,346.723 M 402.368,342.842 C 402.783,342.26 403.043,341.784 402.946,341.784 C 402.846,341.784 402.43,342.26 402.016,342.842 C 401.601,343.424 401.341,343.901 401.438,343.901 C 401.538,343.901 401.954,343.424 402.368,342.842 M 242.311,308.777 C 257.937,306.339 270.774,299.64 281.9,288.117 C 287.238,282.589 290.265,278.328 294.263,270.717 C 298.425,262.795 301.177,254.528 302.432,246.181 C 303.333,240.186 303.241,228.514 302.243,222.298 C 299.337,204.201 292.306,190.325 279.778,177.966 C 267.056,165.416 253.185,158.758 235.152,156.547 C 231.079,156.047 222.832,156.317 218.395,157.094 C 191.941,161.73 170.265,177.564 158.78,200.642 C 152.378,213.507 149.309,229.972 150.973,242.529 C 153.132,258.82 160.034,272.948 171.602,284.754 C 181.257,294.608 191.602,301.109 204.562,305.467 C 209.993,307.294 218.551,308.961 225.097,309.469 C 228.57,309.739 238.775,309.328 242.311,308.777 L 242.311,308.777 M 221.746,307.904 C 208.358,306.261 194.366,300.331 183.47,291.683 C 177.422,286.882 169.509,278.12 165.328,271.593 C 161.696,265.922 157.923,257.175 156.348,250.767 C 153.609,239.63 153.336,229.965 155.459,219.302 C 157.468,209.215 162.676,198.239 169.49,189.737 C 172.017,186.583 178.32,180.22 181.455,177.659 C 190.783,170.037 202.289,164.514 214.038,162.02 C 219.926,160.77 230.711,160.44 237.092,161.315 C 253.368,163.547 266.847,170.292 278.729,182.149 C 287.362,190.765 294.126,202.673 297.968,216.019 C 299.99,223.044 300.572,227.283 300.56,234.892 C 300.53,251.462 295.7,265.691 285.399,279.519 C 281.755,284.409 280.195,285.858 283.119,281.635 C 291.476,269.567 295.923,259.842 298.11,248.848 C 299.142,243.663 299.859,235.038 299.544,231.603 C 299.235,228.227 298.312,220.888 298.128,220.338 C 298.048,220.097 297.808,219.224 297.597,218.4 C 297.386,217.575 297.084,216.901 296.926,216.901 C 296.768,216.901 296.856,217.723 297.112,218.728 C 300.025,229.958 299.06,246.518 294.789,258.592 C 289.404,273.814 280.172,286.456 268.291,294.88 C 259.075,301.414 248.55,305.647 237.233,307.372 C 232.625,308.075 225.209,308.329 221.746,307.904 L 221.746,307.904 M 312.092,264.507 C 312.473,264.303 314.011,263.917 315.508,263.649 C 317.006,263.381 321.485,262.364 325.463,261.389 C 354.595,254.25 376.799,249.403 396.648,245.851 C 400.972,245.077 404.663,244.349 404.85,244.233 C 405.522,243.818 405.199,242.322 404.311,241.741 C 403.568,241.254 402.818,241.202 399.461,241.406 C 390.292,241.962 383.084,243.021 376.263,244.815 C 370.479,246.336 350.36,252.223 343.278,254.466 C 329.039,258.977 317.715,262.377 315.585,262.782 C 313.244,263.226 311.57,263.888 311.177,264.523 C 310.894,264.98 311.217,264.974 312.092,264.503 L 312.092,264.507 M 112.534,258.184 C 112.073,257.723 97.612,254.37 79.224,250.462 C 61.389,246.671 61.585,246.707 61.585,247.162 C 61.585,247.58 63.724,248.109 73.932,250.216 C 82.949,252.078 109.566,257.731 111.327,258.158 C 112.006,258.323 112.633,258.473 112.72,258.493 C 112.81,258.513 112.72,258.373 112.534,258.184 L 112.534,258.184 M 340.809,247.429 C 358.019,243.985 373.483,241.055 383.531,239.334 C 392.733,237.759 393.703,237.345 396.019,234.0 C 398.141,230.935 398.796,226.026 398.162,217.939 C 397.715,212.24 396.518,205.835 395.301,202.631 C 394.199,199.729 391.88,197.305 389.541,196.611 C 387.992,196.151 377.662,194.67 362.681,192.759 C 352.51,191.462 337.386,190.355 309.106,188.836 C 306.804,188.713 304.98,188.746 305.053,188.906 C 305.123,189.069 305.924,190.642 306.828,192.401 C 311.863,202.201 315.512,213.233 317.381,224.305 C 318.435,230.547 318.548,243.632 317.596,249.084 C 317.266,250.973 316.996,252.572 316.996,252.635 C 316.996,252.695 319.02,252.22 321.494,251.571 C 323.968,250.921 332.659,249.055 340.809,247.425 L 340.809,247.429 M 321.469,246.597 C 321.628,245.301 321.751,240.986 321.743,237.009 C 321.733,230.755 321.597,229.037 320.765,224.309 C 319.653,217.98 315.739,201.951 314.182,197.343 C 313.595,195.609 313.116,194.051 313.116,193.88 C 313.116,193.709 314.346,193.661 315.85,193.773 C 334.659,195.176 357.535,196.99 367.091,197.836 C 369.128,198.016 374.484,198.44 378.992,198.777 C 383.501,199.115 387.369,199.502 387.588,199.637 C 388.51,200.207 391.274,212.25 392.303,220.182 C 393.601,230.181 392.655,233.456 387.857,235.577 C 386.425,236.211 374.384,238.562 366.209,239.805 C 362.925,240.305 345.96,243.414 340.809,244.461 C 337.713,245.09 330.287,246.78 323.409,248.421 L 321.179,248.953 L 321.469,246.597 M 330.146,232.965 C 327.058,229.771 324.067,226.809 323.498,226.384 C 322.93,225.959 325.399,228.573 328.987,232.192 C 332.575,235.812 335.566,238.773 335.634,238.773 C 335.704,238.773 333.233,236.159 330.146,232.965 L 330.146,232.965 M 341.338,238.329 C 341.338,238.279 337.184,234.112 332.107,229.069 C 327.03,224.026 323.543,220.722 324.359,221.728 C 325.705,223.388 340.871,238.42 341.199,238.42 C 341.279,238.42 341.338,238.38 341.338,238.33 L 341.338,238.329 M 326.168,235.069 C 324.723,233.613 323.461,232.423 323.364,232.423 C 323.264,232.423 324.37,233.613 325.816,235.069 C 327.261,236.524 328.523,237.714 328.62,237.714 C 328.72,237.714 327.614,236.524 326.168,235.069 M 336.928,227.979 C 331.495,222.645 325.463,216.844 323.522,215.087 C 321.582,213.33 325.868,217.702 333.047,224.803 C 340.227,231.904 346.259,237.705 346.453,237.695 C 346.647,237.695 342.361,233.313 336.928,227.979 M 339.397,224.434 C 332.218,217.343 325.233,210.577 323.875,209.397 C 320.146,206.157 333.259,219.356 343.278,228.928 C 348.129,233.562 352.177,237.347 352.274,237.339 C 352.374,237.339 346.577,231.524 339.397,224.434 L 339.397,224.434 M 346.605,225.617 C 340.285,219.368 333.141,212.439 330.73,210.221 L 326.345,206.187 L 331.46,211.398 C 338.533,218.604 357.493,237.012 357.824,236.995 C 357.973,236.995 352.924,231.867 346.605,225.617 L 346.605,225.617 M 357.208,230.443 C 349.064,222.228 331.65,205.259 331.364,205.259 C 331.05,205.259 361.824,235.584 362.147,235.593 C 362.247,235.593 360.019,233.278 357.208,230.443 L 357.208,230.443 M 362.5,229.753 C 356.192,223.409 337.104,204.772 337.104,204.956 C 337.104,205.51 366.783,234.892 367.342,234.892 C 367.49,234.892 365.311,232.579 362.5,229.753 L 362.5,229.753 M 369.374,230.863 C 368.08,229.423 361.441,222.802 354.621,216.149 C 347.8,209.496 344.26,206.189 346.753,208.801 C 351.004,213.254 371.367,233.465 371.613,233.476 C 371.673,233.476 370.668,232.303 369.374,230.863 M 367.97,223.58 C 363.121,218.716 356.772,212.507 353.861,209.781 C 350.951,207.055 354.813,211.035 362.443,218.624 C 370.073,226.213 376.422,232.423 376.552,232.423 C 376.681,232.423 372.819,228.444 367.97,223.58 M 322.537,229.164 C 322.457,228.725 322.381,229.001 322.377,229.777 C 322.377,230.553 322.437,230.912 322.53,230.575 C 322.62,230.238 322.62,229.603 322.53,229.164 L 322.537,229.164 M 377.49,227.105 C 370.453,219.995 356.11,206.266 357.58,208.047 C 359.101,209.891 380.097,230.306 380.472,230.306 C 380.574,230.306 379.232,228.866 377.49,227.105 M 380.316,223.932 C 377.213,220.814 371.659,215.395 367.972,211.89 C 363.626,207.757 365.513,209.749 373.339,217.558 C 379.977,224.182 385.532,229.601 385.682,229.601 C 385.833,229.601 383.418,227.05 380.316,223.932 L 380.316,223.932 M 386.846,224.563 C 386.846,224.289 368.094,206.254 367.955,206.394 C 367.809,206.539 386.432,224.662 386.726,224.662 C 386.796,224.662 386.846,224.612 386.846,224.562 L 386.846,224.563 M 322.641,219.942 C 322.641,219.872 322.363,219.591 322.023,219.325 C 321.464,218.886 321.451,218.899 321.89,219.458 C 322.351,220.046 322.641,220.233 322.641,219.942 M 386.846,218.925 C 386.846,218.875 383.949,215.978 380.408,212.487 L 373.97,206.141 L 380.316,212.579 C 386.212,218.561 386.846,219.177 386.846,218.925 M 135.885,245.739 C 135.915,240.617 136.119,238.076 136.875,233.305 C 139.172,218.794 141.764,209.793 147.432,196.632 C 148.515,194.119 149.342,192.003 149.27,191.932 C 149.2,191.862 144.402,192.049 138.611,192.351 C 132.821,192.654 124.909,193.061 121.028,193.256 C 93.863,194.621 68.66,196.295 66.919,196.85 C 65.251,197.382 63.101,199.43 62.064,201.478 C 60.261,205.035 58.567,214.412 58.194,222.898 C 57.868,230.3 58.862,234.222 61.801,237.132 C 64.376,239.68 63.645,239.48 83.104,242.97 C 87.47,243.753 95.328,245.112 100.567,245.991 C 112.85,248.052 133.193,251.615 135.668,252.138 C 135.768,252.158 135.863,249.279 135.885,245.739 L 135.885,245.739 M 130.906,247.044 C 130.241,246.782 114.681,244.099 105.506,242.664 C 87.949,239.92 72.984,237.347 70.38,236.626 C 67.467,235.819 65.774,234.716 64.848,233.022 C 64.343,232.099 64.241,231.09 64.286,227.484 C 64.366,221.059 65.699,213.68 68.346,205.017 L 69.444,201.424 L 71.6,201.221 C 80.837,200.353 133.156,195.993 139.964,195.523 L 143.377,195.288 L 141.81,200.185 C 138.976,209.042 135.524,223.863 134.456,231.77 C 134.002,235.124 133.215,244.459 133.202,246.622 C 133.202,247.066 132.927,247.232 132.229,247.212 C 131.695,247.192 131.1,247.122 130.906,247.044 L 130.906,247.044 M 132.939,236.303 C 133.066,233.806 133.029,233.174 132.839,234.363 C 132.547,236.163 132.387,240.421 132.62,240.154 C 132.69,240.074 132.834,238.341 132.937,236.303 L 132.939,236.303 M 128.436,227.615 C 131.153,224.969 132.582,223.493 131.611,224.334 C 130.641,225.175 126.99,228.643 123.497,232.041 C 120.005,235.439 118.576,236.915 120.322,235.322 C 122.069,233.729 125.72,230.261 128.436,227.615 M 128.789,233.128 C 130.722,231.188 132.224,229.601 132.127,229.601 C 132.027,229.601 130.369,231.188 128.436,233.128 C 126.503,235.069 125.001,236.656 125.098,236.656 C 125.198,236.656 126.856,235.069 128.789,233.128 M 102.154,235.421 C 102.61,234.936 102.904,234.539 102.807,234.539 C 102.707,234.539 102.257,234.936 101.802,235.421 C 101.346,235.906 101.052,236.303 101.149,236.303 C 101.249,236.303 101.699,235.906 102.154,235.421 M 122.794,221.777 C 127.061,217.765 131.426,213.573 132.493,212.461 C 133.56,211.348 130.147,214.418 124.909,219.283 C 119.67,224.147 113.637,229.923 111.503,232.119 L 107.622,236.112 L 111.329,232.592 C 113.367,230.655 118.527,225.789 122.794,221.777 L 122.794,221.777 M 129.107,221.369 C 133.534,217.025 133.305,217.206 127.025,223.014 C 123.145,226.603 118.62,230.933 116.971,232.636 C 113.203,236.528 121.658,228.677 129.107,221.369 M 104.615,222.018 C 111.591,215.431 122.286,204.908 118.758,208.101 C 113.683,212.695 103.765,222.099 97.216,228.529 L 91.747,233.897 L 96.501,229.544 C 99.115,227.15 102.766,223.763 104.615,222.018 L 104.615,222.018 M 123.233,215.706 C 128.326,210.852 132.493,206.823 132.493,206.753 C 132.493,206.457 114.933,222.841 109.576,228.135 L 103.742,233.901 L 108.857,229.216 C 111.671,226.64 118.14,220.56 123.233,215.706 M 107.005,213.974 C 112.68,208.553 117.324,204.041 117.324,203.946 C 117.324,203.856 116.014,205.007 114.413,206.514 C 112.813,208.02 108.566,211.999 104.977,215.355 C 101.387,218.712 95.752,224.099 92.453,227.327 L 86.456,233.196 L 91.571,228.513 C 94.384,225.938 101.33,219.395 107.005,213.974 L 107.005,213.974 M 117.765,215.198 C 123.343,209.87 127.907,205.445 127.907,205.366 C 127.907,205.123 110.094,221.784 104.447,227.308 L 99.156,232.484 L 103.389,228.684 C 105.717,226.595 112.187,220.525 117.765,215.198 L 117.765,215.198 M 133.433,231.276 C 133.333,231.034 133.255,231.236 133.255,231.717 C 133.255,232.202 133.335,232.401 133.433,232.158 C 133.533,231.916 133.533,231.519 133.433,231.276 L 133.433,231.276 M 83.281,230.659 C 84.039,229.883 84.579,229.248 84.482,229.248 C 84.382,229.248 83.686,229.883 82.928,230.659 C 82.17,231.435 81.629,232.07 81.727,232.07 C 81.827,232.07 82.523,231.435 83.281,230.659 M 133.796,228.99 C 133.706,228.647 133.628,228.842 133.62,229.424 C 133.62,230.006 133.69,230.287 133.783,230.048 C 133.883,229.809 133.886,229.333 133.793,228.99 L 133.796,228.99 M 78.695,229.248 C 79.046,228.86 79.254,228.542 79.157,228.542 C 79.057,228.542 78.693,228.86 78.342,229.248 C 77.991,229.636 77.783,229.953 77.88,229.953 C 77.98,229.953 78.344,229.636 78.695,229.248 M 104.624,210.564 C 107.243,207.996 108.263,206.903 106.889,208.135 C 101.508,212.961 90.882,222.995 87.867,226.097 C 84.177,229.893 97.588,217.461 104.624,210.564 L 104.624,210.564 M 95.028,214.117 C 100.5,208.997 104.977,204.718 104.977,204.607 C 104.977,204.497 104.302,205.049 103.477,205.834 C 102.653,206.619 99.121,209.887 95.628,213.096 C 92.136,216.306 87.119,221.054 84.48,223.649 C 78.909,229.126 81.24,227.02 95.028,214.117 L 95.028,214.117 M 134.138,227.043 C 134.038,226.8 133.96,227.003 133.96,227.484 C 133.96,227.969 134.04,228.167 134.138,227.925 C 134.238,227.682 134.238,227.285 134.138,227.043 L 134.138,227.043 M 87.507,215.484 C 96.634,207.008 99.825,203.904 95.628,207.584 C 91.567,211.144 75.696,226.08 75.696,226.34 C 75.696,226.449 76.688,225.597 77.901,224.447 C 79.114,223.298 83.436,219.264 87.507,215.484 L 87.507,215.484 M 134.491,224.926 C 134.391,224.684 134.313,224.886 134.313,225.367 C 134.313,225.852 134.393,226.051 134.491,225.808 C 134.591,225.566 134.591,225.169 134.491,224.926 L 134.491,224.926 M 87.376,209.789 C 89.047,208.17 89.602,207.553 88.611,208.416 C 85.881,210.794 71.816,224.011 71.816,224.199 C 71.816,224.39 82.906,214.12 87.376,209.789 M 134.851,223.537 C 134.738,223.256 134.655,223.339 134.638,223.75 C 134.628,224.122 134.708,224.331 134.823,224.213 C 134.94,224.096 134.953,223.792 134.853,223.537 L 134.851,223.537 M 135.196,221.046 C 135.096,220.803 135.018,221.006 135.018,221.487 C 135.018,221.972 135.098,222.17 135.196,221.928 C 135.296,221.685 135.296,221.288 135.196,221.046 L 135.196,221.046 M 135.549,219.282 C 135.449,219.039 135.371,219.242 135.371,219.723 C 135.371,220.208 135.451,220.406 135.549,220.164 C 135.649,219.921 135.649,219.524 135.549,219.282 L 135.549,219.282 M 135.902,217.518 C 135.802,217.275 135.724,217.478 135.724,217.959 C 135.724,218.444 135.804,218.642 135.902,218.4 C 136.002,218.157 136.002,217.76 135.902,217.518 L 135.902,217.518 M 135.139,215.842 C 135.49,215.454 135.698,215.137 135.601,215.137 C 135.501,215.137 135.138,215.454 134.786,215.842 C 134.435,216.23 134.227,216.548 134.324,216.548 C 134.424,216.548 134.788,216.23 135.139,215.842 M 83.104,207.865 C 83.589,207.319 81.883,208.832 79.312,211.228 C 76.741,213.624 74.638,215.66 74.638,215.753 C 74.638,215.974 81.968,209.145 83.104,207.865 L 83.104,207.865 M 135.713,209.58 C 136.152,209.021 136.14,209.008 135.58,209.447 C 135.241,209.714 134.963,209.991 134.963,210.065 C 134.963,210.355 135.252,210.168 135.713,209.58 M 111.15,204.553 C 111.908,203.777 112.449,203.142 112.352,203.142 C 112.252,203.142 111.555,203.777 110.797,204.553 C 110.04,205.329 109.499,205.964 109.596,205.964 C 109.696,205.964 110.392,205.329 111.15,204.553 M 400.693,240.307 C 402.002,240.183 403.074,239.923 403.074,239.728 C 403.074,239.318 398.214,239.628 396.547,240.148 C 395.494,240.474 395.496,240.476 396.9,240.504 C 397.676,240.524 399.383,240.434 400.693,240.307 L 400.693,240.307 M 149.617,223.046 C 150.918,215.405 153.838,206.676 157.63,199.085 C 161.209,191.921 165.952,185.483 172.324,179.143 C 179.533,171.968 187.808,166.101 196.154,162.245 C 198.103,161.345 200.094,160.414 200.579,160.177 L 201.461,159.747 L 200.579,159.96 C 199.018,160.336 189.209,165.212 186.116,167.149 C 178.51,171.912 168.516,180.62 163.443,186.903 C 157.419,194.364 152.549,204.516 150.152,214.608 C 148.378,222.076 147.436,231.137 147.873,236.539 L 148.153,240.008 L 148.587,233.274 C 148.826,229.571 149.289,224.969 149.617,223.046 L 149.617,223.046 M 75.696,185.696 C 80.861,185.215 94.84,184.049 113.972,182.503 C 123.933,181.698 139.057,180.641 146.781,180.209 C 156.582,179.662 159.312,179.319 161.301,178.386 C 163.107,177.54 167.149,174.579 171.828,170.674 C 180.381,163.537 188.791,158.546 198.163,155.047 C 218.246,147.55 242.054,148.508 262.266,157.627 C 270.187,161.201 276.662,165.538 283.133,171.603 C 289.685,177.745 292.18,179.018 298.635,179.511 C 300.875,179.682 306.201,179.996 310.47,180.209 C 320.713,180.719 346.979,182.685 369.639,184.637 C 390.294,186.416 391.926,186.475 394.928,185.541 C 400.738,183.732 404.106,179.389 404.123,173.685 C 404.133,169.241 402.56,161.785 400.358,155.87 C 398.805,151.699 393.286,140.592 390.345,135.717 C 377.729,114.808 359.296,94.135 339.75,78.973 C 334.254,74.71 323.884,67.846 317.064,63.957 C 290.724,48.938 259.809,40.864 228.635,40.864 C 191.823,40.864 157.875,50.955 126.849,71.118 C 111.419,81.146 94.8,96.432 81.846,112.512 C 73.308,123.111 66.786,133.125 60.849,144.758 C 54.096,157.988 51.985,164.66 51.92,172.98 C 51.87,179.626 53.066,182.439 56.912,184.692 C 60.387,186.729 63.061,186.872 75.696,185.696 L 75.696,185.696 M 43.163,177.566 C 47.085,162.886 54.704,144.834 62.33,132.154 C 75.701,109.92 93.441,89.893 113.091,74.852 C 121.733,68.236 132.876,61.355 143.782,55.897 C 169.778,42.888 198.887,36.147 228.802,36.206 C 252.042,36.256 274.354,40.365 295.602,48.521 C 319.417,57.663 340.667,71.459 359.812,90.21 C 384.208,114.103 399.93,137.843 412.99,170.51 C 414.309,173.809 415.396,176.327 415.405,176.106 C 415.445,175.123 409.977,160.341 407.868,155.73 C 407.366,154.631 406.954,153.666 406.954,153.585 C 406.954,152.957 401.238,141.42 398.385,136.291 C 384.014,110.453 363.147,86.303 341.338,70.269 C 316.647,52.117 289.22,40.676 258.611,35.762 C 246.24,33.776 238.122,33.114 226.095,33.108 C 208.212,33.108 191.482,35.202 175.356,39.484 C 155.271,44.818 134.53,54.032 117.853,65.027 C 98.378,77.868 78.362,97.848 65.722,117.064 C 54.568,134.02 47.262,151.453 42.36,172.803 C 41.669,175.811 41.015,178.561 40.905,178.915 C 40.741,179.449 40.875,179.54 41.699,179.444 C 42.563,179.344 42.753,179.1 43.163,177.566 L 43.163,177.566 M 271.841,167.521 C 268.055,164.364 257.718,159.184 250.394,156.774 C 242.577,154.203 233.965,152.847 227.743,153.209 C 222.125,153.536 214.715,154.601 215.135,155.021 C 215.215,155.101 216.141,155.001 217.191,154.805 C 221.047,154.071 229.179,153.738 233.915,154.119 C 246.024,155.095 259.347,159.694 269.555,166.423 C 273.115,168.769 273.639,169.021 271.841,167.521" id="path2" style="fill:#000000"/>
</svg>
